<svg id="Layer_1" data-name="Layer 1" xmlns="http://www.w3.org/2000/svg" viewBox="0 0 873.3 987.1"><defs><style>.cls-1{fill:none;stroke:#00b1ff;stroke-linejoin:round;stroke-width:3.5px;}.cls-2{fill:#90f7fc;}.cls-3{fill:#ffbc00;}.cls-4{fill:#00b1ff;}</style></defs><title>India_-_Punjab_Circle_SVG</title><path id="path3939" class="cls-1" d="M467.57,293.8c-.8,2.5-8,5.3-11.8,5.5s-6.8,4-7.5,9c-.6,3.8-4.2,2.3-6,1.3l.1.5" transform="translate(-1.67 -1.9)"/><path class="cls-2" d="M307.27,158.7l3.2-1.3C309.47,157.8,308.27,158.2,307.27,158.7Z" transform="translate(-1.67 -1.9)"/><path class="cls-2" d="M243.9,485.9l-.23.7Z" transform="translate(-1.67 -1.9)"/><path class="cls-2" d="M307.27,158.7c-2.2,1-8.7,7.6-10.9,9.6a37.55,37.55,0,0,1-4.4,3.5c-1.6,1.2-4.7,3.3-5.4,5.1l-4.4.5c-.6,1.3-1.3,2.7-1.9,4.1l-3.3,1.8c-1.4,3.8-2.1,8.4-5.6,10.3-3.2,1.2-6.6,2.4-10,2.2l-2-.1-3.4-.2-1.5-.9c-.5-1-2-5.9-4.5-6-7.8-.2-4.8,5.4-6.5,11.9l-5,3.7c-5.8,4.4-10.2,9.9-15.5,14.7-3.5,3.2-8.5,4-11.6,7.1l-.8.8-.8.8a11.63,11.63,0,0,0-2.7,6.2l-.2.1a33.68,33.68,0,0,0-5.7-.5l-.6,2.9a5,5,0,0,0-.5,3,42,42,0,0,1-.6,6.1,12.59,12.59,0,0,0-.4,2.7,15,15,0,0,0,.6,2.9c.6,2.9.3,2.4,1.7,4.8l-.1,1.8-1.1.5a12.43,12.43,0,0,1-2.3-.4,23.12,23.12,0,0,1-2.3-1.4l-1.4-.1-1,.5a54.13,54.13,0,0,1,.2,9s-.2,3.4-.1,3.5a1.42,1.42,0,0,0,.2.6c.5,1.1.9,2.2,1.5,3.3l2,4.3c1.4,2.8,3.1,5.6,4.7,8.4,3.1,5.4,6.2,10.9,9,16.4.9,1.8,1.5,3.8,2.2,5.6.6,1.5,1.3,3.1,1.8,4.7.8,2.6,1.8,5.4,2.4,8.1.7,3.2.9,6.6,1.4,9.8v.2c.1,1.5.1,3.1.2,4.6v-.1s4.2,2.5-1.6,3-5,7.3-2,7.8a9.4,9.4,0,0,1,5,2.8l8.2,8.3s2.6,11.3,2.1,13-1.8.8-3.5.5a10.75,10.75,0,0,0-5.8,1.3c-1.5.8-6.2,3.5-6,4.2s-2.5,7.3-4.3,8.3-9.7,9.1-9.7,9.1.4,8.7-1.6,10.7-1.3,3.5-.3,5,1.8,2-.5,4.8a14.15,14.15,0,0,0-3,8.8c0,2.5,1.2,23.7,1.2,23.7s-8.7,2.1-6.7,5.8,2.8,5.8,2,7.3-1.5,6.5,2.8,8.5,8,3.5,8,3.5.5,3.8,0,5.3,2.8,7,5,5.3,5.5-2,8-2.8,2.8-2.8,2.8-5-.3-6.8,3.8-5.5,5.5,4.3,7,2.5,1.8-2.5,4.3-1.8a25.12,25.12,0,0,1,6.5,2.5c2,1.2,4.8,6.3,4.8,8.3a24.42,24.42,0,0,1-1.27,5.6l.27-.8a63.23,63.23,0,0,0,8-.5c3-.5,4.3-4.3,4.3-4.3,2.9.3,5.6-1.3,7.4-4.5,2.3-4,1.9-5.8,5.9-9.7,1.6-1.5,4-2.3,5.9-3.2,5.3-2.5,6.7-7.5,13.3-5.9,3.7.9,4.4,1,8,.1,4.4-1.1,3.4-.1,7.4.6s9.1-2.2,12.3.1c0,0,.7.2.7.3a7.71,7.71,0,0,0,4.13-1c.31.47,4,6.06,5.77,8.45s7.5,5.3,6.8,1.5-3-8,1.3-8.8,6-1.3,8,.3c1.29,1,4.88,1.06,7.93.33-2.87.8-6.46.9-8.15.14l1.82,1a53.77,53.77,0,0,1,.8,5.8,3.8,3.8,0,0,0,4,3.3c2.2-.2,6.3-2.5,6.8,1s2.1,6.6,4.6,6.9c1.9.8,5.4.4,6.3.5,16.8.9,8.3,14.2,17.2,17,2.6.8,5.6-.9,8.1-1.3,3.6-.6,4.5,3,7,4,2,2.5,5.3,2.3,8.2,2.4,8.4.3,8.7,11.8,22,13.2,1.33,1.2,4.28,2.08,6.82,2.57.1,1.7.4,7.72,0,10-.5,2.7,2.5,8,3.3,10s7,12,7,12-3,6.8-5.8,10.3-2.2,13.7-2.2,13.7.8,9.7.8,13.9a8.46,8.46,0,0,1-2.5,6.3s-.8,4.7-1.6,9.2.3,6-2.2,7.7-1.3,3-1.3,5.1,3.4,7.6,3.4,7.6l.4,8a40.33,40.33,0,0,0,4.2,7.6c2.5,3.4,2.1,5.5.9,8-.7,1.3.4,3.4,1.9,5.6l.2-.2s2.5-3.4,4.2-4.2,8.5-1.6,10.1-4.2,9.9-1.2,9.9-1.2l1.5,8,9-1.3a44.45,44.45,0,0,0,3.8-3.5c.8-1,3.5-2,4.8-.3s2.3,2.8,2.3,2.8l5.8-.5v-3.3c0-1.3.3-4,2-2.3a27.9,27.9,0,0,0,4.3,3.3l6.3.8,7.5-1.8,6.3-5.5,10.3-4.3,5.5,1.5,10.3,2.3,5-1.8s.3-5.8,1.5-5.8h3.5l2-3.8-3.3-5.5,1.3-4,6.5,3.5,7.3-3.8,7.5,2,11.3,6-3.5,4s-2.5,2.5-.5,4,2.8,3,2.8,4,.3,4.3.3,4.3,7.3.5,7.5,2.8,1.5,8,1.5,8l6.3-.5s-.8-3.3,1.3-4,5.5-3,8.5-1.8,3.8,1,5.5.3,9.7-6.5,9.7-6.5l2.8,5.7,6.3,8.8s.2-1.5,3.5-1.5,6.5-2,7.5-4.5,3-9,3-9,2.3-5,2-6.3-.3-1.5,1.3-3.5,6.8-5.8,9.5-6.5a32.67,32.67,0,0,0,9.3-4.8c1.1-.9,2.5-3.3,4-4.4,0,0,4-2.1,6.7-2.1s11-1,11.5-2.8,1-2-1-4.5-3.3-5-2-7.3,1.5-6.5-1.5-8.8-7.5-1.3-4-8,4.8-13.8,4.5-16-1-5,.5-6.8,2.3-3.5,5.3-3,7.5,1,7.5,1l6.3,3.5-.3-.2c-.3-1.9-.5-4.5,1.8-5.6,3-1.5,6.3-4.3,6.3-6.5a21.82,21.82,0,0,0-1.5-9c-1.5-3.5-1.8-3.8-4.5-3.3a4.73,4.73,0,0,0-3.8,4.5,45.69,45.69,0,0,1-1.5,8.5c-.5,1.2-2.3,4.3-3.5,2.5s-3.5-5.8-3.5-5.8l1.3-17.5v-16c-.33.06-10.15.91-14.3,1.1l-.4-.9a115.75,115.75,0,0,0-10.3-5.8c-6-3-11.3.3-15.3,3s-10.3,1.3-13.5-.5-7.3,1-9,1-5.3,1-11,1.5-8.5-.3-11.8-.8-7-2.5-10-2.8a10.41,10.41,0,0,1-1.3-.21v-.59c-.1-1.8-.3-4.7-1.5-6.6-1.8-2.8-3.8-9.3-5-12-1.1-2.4-2.7-5.7-2.7-7.5l-2.8-1s-2.5-15.5-3.5-17.3-3-5-3-5a17.19,17.19,0,0,0-4.3-1.3c-1.3,0-7.3-2.3-7.3-3.8v-4l-7.5-.5a23.09,23.09,0,0,1-3.3-5.5c-.5-1.5-1.2-3.5-1.6-5.1v-2.8c1.6-.1,3.4-.2,5.5-.3,2.5-.2,4.3-3.7,4-5s-1.3-5-2.3-6.3-1.2-5.5,1.8-5.8,6.5,2,6,5-2,7.3,1.3,6.8,5-3.8,5.3-4.8,0-5.2,0-6.5a6.88,6.88,0,0,0-.2-1.3c-.3-1.2-1-2.5-2.3-2.5-1.8,0-5.3,1-6.3-.8s-2.5-7.1,0-9.3a21.79,21.79,0,0,1,6.3-3.5s2-5,1.3-6-1-2.3-3.5-2.3-6,0-7.3-1-4.1-2.6-6.8-1-3.3,1.6-5,.3a7.39,7.39,0,0,0-4-1.3l-4.64-.48a13.58,13.58,0,0,0,1-1.22c.8-1,5.8-7.5,5.8-9.3s.5-8,.3-10-1.8-7.5-4-8.5-9.5-5.5-11.3-8-6-9.8-9-11.8a99.57,99.57,0,0,1-8.8-7.5s0-6.5-1-8.3-2.3-8.3-4.3-10.3-6.5-6.8-6.5-6.8-6.5.5-7.8.8a21.51,21.51,0,0,1-4.5,0l-3.1-.6-.82-.31c-.19-.22-.39-.45-.58-.69-4.1-4.6-10.2-11.1-11.1-11.7-1.3-.8-3-1-4,.3s-3,3.8-3,3.8h-5.8l-6.87-.94a2.92,2.92,0,0,0,.17-.36c.8-2.5,3.3-8.5,3.3-8.5l1.3-4.1c2.4-2.3,4-5.3,6.6-7.5,1.3-1.2,2.3-2.6,3.5-3.9,1.7-2,3.5-2.8,4.3-5.5,1.6-5.4.6-6.1-2.1-10.2-1.2-1.9-1.3-8.7-1.2-10.9,0-1.2.3-2.3.3-3.5.1-2.5-.1-4.6.2-7.2.5-4.2,1.3-6.3,1.2-10.7-.2-5,2.9-8.5,3-13.3.2-8.4-6.5-7.8-2.4-17.2.6-1.3.4-2.6.8-3.8l.3-.8c.7-1.8.2-5.5-.5-7.2-.8-2.4-2.8-3.8-4.1-5.9.1-4,4.2-5.7,3.7-12-.3-3.6,6.9-5.2,9.1-7.4a27.33,27.33,0,0,1,4-.5c3.5-.4,5.2-.9,6.2-1.7l-.1.3s3.95-3.66,7-6.25l.16.15-.13-.18,0,0,.2.2-.2-.28a32,32,0,0,1,2.8-2c2.5-1.3,4.3-12.5,9-21.8s-1.8-5.5-4.8-5.3-6.5,2.8-6.5,2.8,3.5-13.8,3.5-15,1.5-8.3,2.3-9.3a14.52,14.52,0,0,1,12-4.8c7,.5,14.5-1,17.3-2.3s14.8-24,16.3-25.3,11.3-11.5,13.5-14,19-4.5,19-4.5l-9.8-20s-15.4-15.1-15.4-21.7l-1.8-.9c0,2.5-5.4,8.4-5.4,8.4l-14.2,8.1-13.3,6.5a2.83,2.83,0,0,0-1.1,1.5L534,34.3l-7,7.5-18.5,3.1-.5.1-13.7,5.8-.5.3-7.1,5.8-7.5,5.6,1.2,1.7-.4.3.4,1.4s.3,7.8,1,10.5,1,9.5-4.3,9.8-4.8-1.3-5-5-3.8-6.8-6-8.5-2-3.5-1-6.5-1.8-3.3-3.3-1.8-4,3-8.3,6.3-5.8,2-8.5.8-5.5-2.8-11.3-6-10.9,1.4-10.9,1.4l.4.4a18.34,18.34,0,0,1,1.8,3c-.2,1.6-.7,4.5-.7,6a11.73,11.73,0,0,0,1.6,5.2l2.7,1.5,1.9,3.2c1.7.1,5.1-.3,6,1.3a8.06,8.06,0,0,1,1.3,3L436,93.3l.1,9.6.06,0c-3.27,2.86-4.18,3.57-8.66,5.26l-6,2.3-1.6,2.8c.1,2.4.3,5,.2,7.3a1.27,1.27,0,0,1-.1.6l-3.2,1.2-.2.7c-1.1,1.5-4.7,3-6.3,3.9l-.7.4a4.41,4.41,0,0,0-1.8,1.5l-.6.8-.6.8c-.5.7,0,1.2.6,1.5l-1.2-.5c-.7,1.8-.3,3.7-.7,5.6l-.5,1.2-7.2,6.7c-.5.4-.9.9-1.5,1.3v-.4l-2.8,1.4c.2-2.4.8-4.9-.2-7.1l-3-2.2-2,1.2-.3,1.1c-.8,2.5-.7,2.6-.7,5.3a7.52,7.52,0,0,1,0,1.5s-1.8,3.5-1.9,3.6a5.55,5.55,0,0,1-.8.6l-5.6,4.3c-1.4-.1-4.4,0-5.7-.2a72.05,72.05,0,0,1-6.9-2.4l-2-1.9a21.52,21.52,0,0,0-4.1,3.8l-1,.1-1.4.1a3.69,3.69,0,0,0-2.3.7l-.8.5-.2.1c-3.6-3.6-5.5-2.4-7.8.4l-.7,5.3-1.5,1.7s-1.3.6-1.4.7c-1.3-.1-2.9-.4-4.2-.5-.1,0-1.7.4-1.8.4l-.4.1c-3.3,2.7-3.1,3.4-7,3.4a37,37,0,0,1-3.3-2.1l-5.9-5.2a7,7,0,0,0-1.6-1.4s-3.9-1.4-4-1.4a25.61,25.61,0,0,0-3.9-.3,1,1,0,0,1-.3.1c-1.1.4-2.2.8-3.2,1.2" transform="translate(-1.67 -1.9)"/><path class="cls-3" d="M551.17,386.1l.08-.08-.18,0Z" transform="translate(-1.67 -1.9)"/><path class="cls-3" d="M695.17,408.4l-.1-.6-7.6.9-5.5-.6-7.3,1.9-6.1-1.8-3.2-13.8-6.2-7.8,2.4-6-.1-7.2v-6l-3.1-3.6-5-11.4-5-9-3.7-9.6-6.8-12.6-5.6-8.4-3.1-9-4.3-6.6-4.3-7.8L615,281l-3.7-7.8-3.1-9.6-3.1-7.2-3.7-9-1.9-6,3-4.2,5.5.6h4.3V233l-8-11.4-2.5-8.4-6.2-10.8-7.4-7.8-6.8-6-9.8-5.3-9.2-3.5-4.3-4.2-5.6-7.8-4.3-1.2-6.1.6-1.8-2.4-8-7.2-6.1-3-7.9-.5-7.9.7L504.65,153l.42-.86c-1,.8-3.41,1.36-6.91,1.76a18.56,18.56,0,0,0-3.29.44c-2.2,2.2-10,4.2-9.7,7.8.5,6.3-3.6,8-3.7,12,1.3,2.1,3.3,3.5,4.1,5.9.7,1.7,1.2,5.4.5,7.2l-.3.8c-.4,1.2-.2,2.5-.8,3.8-4.1,9.4,2.6,8.8,2.4,17.2-.1,4.8-3.2,8.3-3,13.3.1,4.4-.7,6.5-1.2,10.7-.3,2.6-.1,4.7-.2,7.2,0,1.2-.3,2.3-.3,3.5-.1,2.2,0,9,1.2,10.9,2.7,4.1,3.7,4.8,2.1,10.2-.8,2.7-2.6,3.5-4.3,5.5-1.2,1.3-2.2,2.7-3.5,3.9-2.6,2.2-4.2,5.2-6.6,7.5l-1.3,4.1s-2.5,6-3.3,8.5l-2.2.9,7.3,1h5.8s2-2.5,3-3.8,2.7-1.1,4-.3c.9.6,7,7.1,11.1,11.7l.2-.2,5.5,1a21.51,21.51,0,0,0,4.5,0c1.3-.3,7.8-.8,7.8-.8s4.5,4.8,6.5,6.8,3.3,8.5,4.3,10.3,1,8.3,1,8.3a99.57,99.57,0,0,0,8.8,7.5c3,2,7.2,9.3,9,11.8s9.1,7,11.3,8,3.8,6.5,4,8.5-.3,8.2-.3,10-5,8.3-5.8,9.3a17.61,17.61,0,0,1-1.52,1.72l4.62.48a8.52,8.52,0,0,1,4,1.3c1.7,1.2,2.2,1.2,5-.3s5.5,0,6.8,1,4.8,1,7.3,1,2.8,1.3,3.5,2.3-1.3,6-1.3,6a19.36,19.36,0,0,0-6.3,3.5c-2.5,2.3-1,7.5,0,9.3s4.5.8,6.3.8c1.2,0,2,1.3,2.3,2.5h1.64a4.2,4.2,0,0,1,.06.6c0,1.2.3,5.5,0,6.5s-2,4.3-5.3,4.8-1.8-3.8-1.3-6.8-2.9-5.3-6-5-2.8,4.5-1.8,5.8,2,5.1,2.3,6.3-1.5,4.7-4,5c-2,.2-3.6.3-5.2.4v.5s1.3,4.6,2.3,7.3a23.09,23.09,0,0,0,3.3,5.5l7.5.5v4c0,1.5,6,3.8,7.3,3.8a17.19,17.19,0,0,1,4.3,1.3s2,3.2,3,5,3.5,17.3,3.5,17.3l2.8,1c0,1.8,1.6,5.1,2.7,7.5,1.2,2.7,3.2,9.3,5,12s1.5,8,1.5,8c3,.2,6.7,2.2,10,2.7s6.1,1.3,11.8.8,9.3-1.5,11-1.5,5.8-2.8,9-1,9.5,3.2,13.5.5,9.3-6,15.3-3a115.75,115.75,0,0,1,10.3,5.8l.4.9c3.72-.17,9.15-.65,13.6-1V525.7l-1.3,17.5s2.3,4,3.5,5.8,3-1.3,3.5-2.5a45.69,45.69,0,0,0,1.5-8.5,4.62,4.62,0,0,1,3.8-4.5c2.8-.5,3-.3,4.5,3.3a22.06,22.06,0,0,1,1.5,9c0,2.2-3.3,5-6.3,6.5-2,1-2.14,3.17-1.9,5L705,554.1s-4.5-.5-7.5-1-3.8,1.3-5.3,3-.8,4.5-.5,6.8-1,9.3-4.5,16,1,5.8,4,8,2.8,6.5,1.5,8.8,0,4.8,2,7.3,1.5,2.8,1,4.5-8.8,2.8-11.5,2.8-6.7,2.1-6.7,2.1c-1.6,1.1-2.9,3.5-4,4.4a33.93,33.93,0,0,1-9.3,4.8c-2.8.8-8,4.5-9.5,6.5s-1.5,2.3-1.3,3.5-2,6.3-2,6.3-2,6.5-3,9-4.3,4.5-7.5,4.5a4.37,4.37,0,0,0-3.08.86l-6.12-8.56-2.8-5.7s-8,5.8-9.7,6.5-2.5.9-5.5-.3-6.4,1.1-8.5,1.8-1.3,4-1.3,4l-6.3.5s-1.3-5.7-1.5-8-7.5-2.8-7.5-2.8-.3-3.3-.3-4.3-.8-2.5-2.8-4,.5-4,.5-4l3.5-4-11.3-6-7.5-2-7.3,3.8-6.5-3.5-1.3,4,3.3,5.5-2,3.8h-3.5c-1.2,0-1.5,5.8-1.5,5.8l-5,1.8-10.26-2.29-1-.31-.4-.4-4-1.1-10.3,4.3-6.3,5.5-7.5,1.8-6.3-.8a27.9,27.9,0,0,1-4.3-3.3c-1.7-1.7-2,1-2,2.3v3.3l-5.8.5s-1-1.1-2.3-2.8-4-.7-4.8.3a44.45,44.45,0,0,1-3.8,3.5l-9,1.3-1.5-8s-8.2-1.4-9.9,1.2-8.4,3.4-10.1,4.2-4.2,4.2-4.2,4.2l-.2.2c1.3,2,3,4.1,4,5.7,2.1,3.4,0,6.3-.4,7.6s-5.9,4.7-5.9,4.7a51.84,51.84,0,0,1-8,1.3c-2.5,0-3.8,1.2-6.7-1.7s-7.6-3.4-9.7-1.7-6.8,5.6-6.8,5.6-1.1,7.2-3.1,9.9c0,0-.9,6.8,2.1,9.8s8,7.5,8,7.5l3,15,4.5.5,3,10.5-3,4.5-.5,7.5,6,4.5,6,6v10.5c0,2,2.2,10.3,2.2,10.3a4.56,4.56,0,0,1,2.5,1.5c2.2,2.2,5,4,7,3s3.5-2,5.3.3,3.5,1,4.8.3,2.1.6,2.8,2.3a33.74,33.74,0,0,0,6.5,8.5c2.5,2.2,7.7,5,11,5s11.8-1.8,14.8-1.8,6.8,2.5,6.8,2.5,1.27.88,3,2.05l10.57,4.85c3.8.2,4,3.5,2,5.5a36.37,36.37,0,0,0-4.3,6s-.6,16.5-.3,18,5.1,4.8,5.8,1,3.3-4.5,5-1.8a42,42,0,0,1,3,6s-1,3.7-2,4a5.13,5.13,0,0,0-2,1.8s-5,5.3-5.3,7.3-2.3,10.1-.3,12.3,2.5,3.7,2.5,5,1.8,6.3,5,6.3,8.5-1.5,9-4,1.1-5.8,2.8-5.8,2,.7,4,2,3.7,2.3,5,1.3,6.1-.5,7.3,2a57.65,57.65,0,0,1,3,6.8c.2,1,1.9,4.5-.8,5.3a45.46,45.46,0,0,0-6,2.3c-1.1.5-5.3,3.7-.8,5.5s5.8,1,5.8,3.8-.3,3.8-2.8,4.8a15.27,15.27,0,0,0-5.5,4.5c-1,1.2-1.5,6.5-1.5,6.5l5.6.9,4-1.7,5.7-2.8,4.5,1.7,4.5,2.3,5.7-.5,2.3,4.5,4.5,5.1,1.1,5.1,2.8,5.7,5.1,1.7,7.9,1.2,3.4,1.7,4.5,2.9,4-.5,4-.5,5.1-1.1,2.8-3.4,2.8-1.7,4.5,2.3h4l4.5-6.8,7.4-10.7,8.5-5-.24-.61,7.74-.49,5.7-.5,4.5-5.1,1.7-3.4,5.1-1.7,4.5-1.7,2.8-1.7,2.8-5.1-2.8-4.5-7.9-.6-2.8-.6-.6-7.9-2.3-4.5-1.1-6.8.6-2.3.6-3.4,2.3-3.4,1.1-1.1,4.5-5.6.2-1.9.4-4.9,2.3-6.8,2.8-3.4v-2.8l-1.1-5.7.6-2.8,4-1.7,4.5-2.2-.6-2.8-6.2-1.2-5.1-2.3-2.3-5.7,1.7-1.1,1.1-1.7v-2.8l.6-2.3,2.8.6,7.4,7.4,13.6,6.9,3.4,1.7,3.4.6,2.3-2.2-.6-4.5-1.7-4,3.4-3.4,2.8.6,1.7,3.4,2.3,5.1,4,.6,2.8-5.1,2.3-6.2-2.3-5.1v-5.1l6.2-2.8h5.1l3.4,4.5-2.3,6.2,1.7,6.2,4,6.2,4,6.2,5.1,1.7,5.1,4.5,6.8.6,5.1-3.4,4.5-3.9,4-3.9,6.2-5.6,6.2-4.5,1.7-4.5,2.8-5.6,2.8-5.1-1.1-4.5-6.8-2.9-1.7-6.2-2.8-4.5-6.2.5-2.3,1.7-3.4,3.4-3.4,1.7-3.4-.6,3.4-7.9,5.1-3.9,5.7-2.2,8.5-2.2,9.7-7.9,8.5-5.6,9.1-5,5.1-3.9,5.7-2.8-.6-4.5-7.4,1.7-3.4,1.7.6-5.7-1.1-7.4,2.8-6.8,10.35-4.32.05.62.9-.4,2.8-1.1,2.3,2.8,6.2,3.4,4.5-2.8,4.5-1.7,4.5,2.3,2.8,5.1.6,6.2-.6,7.3,1.1,4.5,5.1,1.7,5.1-3.9,2.8-9-2.8-7.4-2.8-9.6,1.7-9.6v-5.1l4.5-5.6.6-5.1-3.4-2.8-5.7-2.9-1.1-2.8,3.4-1.1,4-2.8,1.1-7.3,2.3-4.5-1.7-4-1.7-5.1-10.8-6.3v-7.9l-2.3-3.4-4,.5-4.5-2.3-2.3-5.1-2.8,3.4-2.3,2.8-5.7.5-5.7-2.9-5.1-3.4-5.1-2.3-4.5-2.8-2.8-5.1-4.5-5.1-1.1-4,2.8-3.9,4-3.9,3.4-2.2,5.1-2.8,2.8-2.2,4-1.7,5.7,3.4,6.2,2.3,4.5.6,5.7-2.8,1.1-3.4-1.1-6.8-4-3.4-7.4-1.7-1.7-8.5-2.3-5.7-4-6.8,2.8-2.8,2.3-2.8-5.7-5.3-5.5-5.4-2-2.12.13-.08-5.8-6.1-9.2-4.1-8.6-2.9-8.6-7.2L789,497.8l.6-7.2,3-9,2.4-7.8-4.3-5.4-2.5-9.6.6-6,7.3-4.9,4.8-7.9-3.7-2.4-6.1-.6-7.3.1,3.6-7.2-1.9-8.4-6.1-3.6-1.8,4.8-4.9,1.2,1.2-4.2-.6-4.8-3,3.6-2.4.6-3.7-4.2-2.4,3.6-4.9-1.8-.7-7.2-6.7,2.5-6.7,1.9.6-2.4,1.8-4.2-3.7-6-3.7-6.6-2.5-8.4-.7-6.6-.6-3.6-4.3-3-4.3-4.2h-4.9l-4.2,4.8-4.9,1.8-1.2,6.6,2.5,4.8-5.5,5.5-3.6,4.8,1.3,4.2-4.2,5.4-3.9.4" transform="translate(-1.67 -1.9)"/><path class="cls-4" d="M245.87,851l7.4-1.1,10.8-3.9,8.5-3.9,5.7-.5,3.4,5.1,4.5,4.5,7.4,1.2,2.8,1.7,3.4,2.3,4.5-1.1,3.4,2.8,1.7,6.2,4,4,5.7,4,3.4,4,5.7,4.6,1.9,1.3,1.5,1,5.1-1.7,4-1.7,5.1.6,4-5.1,1.7-5.6,2.3-4.5,4.5,4.5,3.4,5.7-.6,4-4,4.5-.6,4,2.3,3.4,1.1,3.4-2.3,3.9-1.1,4.5,2.8,1.1,4-1.1h3.4l1.1,5.7,1.7,2.8,3.4,1.1v-7.9l2.8-5.6,4.5-3.9,5.1-1.7.3.4,1.1,4.5,2.8,7.9,3.4,5.7,3.4,7.4-1.7,6.2-4.5,2.8-6.2,3.4,1.1,7.9-1.7,5.1-4,2.8L377,950l1.7,4.5,1.7,2.8v2.8l6.8,4,5.1,5.1-.6,6.2v3.4l2.8,4.5,2.3,5.7,2.3-.6,5.1-1.1,4-1.1,7.4-1.1,2.8-5.6-1.1-3.4-3.4-3.4-1.1-4,2.3-5.6,4.5-6.8,1.7-3.4,1.1-4,4,1.7,3.4,1.2,1.1-4.5v-4l3.4-3.4,3.4-1.7,2.3-3.4,1.7-7.3L444,923l2.8-3.9,4.5-5.1,3.4-2.2,2.3-3.9,1.1-2.8,3.4-.5,11.3,8.5,5.1,2.3,5.7-.5,4,1.2,4.5,6.2,4,2.3,7.4-1.1,5.1-2.8,5.1-5.6h5.1l6.2,2.3,3.4,1.7,3.4-3.4,1.7-7.9,5.1-5.1,1.8.3s.5-5.3,1.5-6.5a15.27,15.27,0,0,1,5.5-4.5c2.5-1,2.8-2,2.8-4.8s-1.3-2.1-5.8-3.8-.2-5,.8-5.5a36.22,36.22,0,0,1,6-2.3c2.8-.8,1-4.3.8-5.3a44.46,44.46,0,0,0-3-6.8c-1.3-2.5-6.1-3-7.3-2s-3-.1-5-1.3-2.2-2-4-2-2.3,3.3-2.8,5.8-5.8,4-9,4-5-5.1-5-6.3-.5-2.7-2.5-5,0-10.3.3-12.3,5.3-7.3,5.3-7.3,1-1.6,2-1.8,2-4,2-4a42,42,0,0,0-3-6c-1.7-2.7-4.2-2-5,1.8s-5.6.5-5.8-1,.3-18,.3-18a36.37,36.37,0,0,1,4.3-6c2-2,1.8-5.2-2-5.5-2.3-.1-6.5-2.7-9.4-4.6-1.8-1.1-3.1-2.1-3.1-2.1s-3.8-2.5-6.8-2.5-11.6,1.8-14.8,1.8-8.5-2.8-11-5a34.37,34.37,0,0,1-6.5-8.5c-.8-1.8-1.5-3-2.8-2.3s-3,2-4.8-.3-3.3-1.3-5.3-.3-4.7-.7-7-3a4.56,4.56,0,0,0-2.5-1.5l.2-.7.2-.3S436,759,436,757V746.5l-6-6-6-4.5.5-7.5,3-4.5-3-10.5L420,713l-3-15s-5-4.5-8-7.5-2.1-9.8-2.1-9.8c1.55-2,2.55-6.83,2.93-8.91.74-.62,4.76-3.95,6.67-5.49,2.1-1.7,6.8-1.2,9.7,1.7s4.2,1.7,6.7,1.7a51.84,51.84,0,0,0,8-1.3s5.5-3.4,5.9-4.7,2.5-4.3.4-7.6c-1-1.6-2.7-3.7-4-5.7-1.5-2.2-2.6-4.3-1.9-5.6,1.2-2.5,1.6-4.6-.9-8a40.33,40.33,0,0,1-4.2-7.6l-.4-8s-3.4-5.5-3.4-7.6-1.2-3.4,1.3-5.1,1.4-3.2,2.2-7.7,1.6-9.2,1.6-9.2a8.46,8.46,0,0,0,2.5-6.3c0-4.2-.8-13.9-.8-13.9s-.6-10.2,2.2-13.7,5.8-10.3,5.8-10.3-6.2-10-7-12-3.8-7.3-3.3-10,0-10.5,0-10.5v-.1c-2.6-.5-5.1-1.2-6.4-2.4-13.3-1.4-13.6-12.9-22-13.2-2.9-.1-6.2.1-8.2-2.4-2.5-1-3.4-4.6-7-4-2.5.4-5.5,2.1-8.1,1.3-8.82-2.77-.57-15.85-16.77-17,0-.26,0-.43,0-.43-.9,0-4.4.3-6.3-.5-2.5-.3-4.1-3.4-4.6-6.9s-4.5-1.3-6.8-1a3.66,3.66,0,0,1-4-3.3,53.77,53.77,0,0,0-.8-5.8l-2.3-1.3c-2-1.5-3.8-1-8-.3s-2,5-1.3,8.8-5,1-6.8-1.5-5.8-8.5-5.8-8.5l.1-.7a7.35,7.35,0,0,1-4.6,1.2c-.1,0-.7-.2-.7-.3-3.2-2.2-8.4.6-12.3-.1s-3-1.7-7.4-.6c-3.6.9-4.3.8-8-.1-6.6-1.5-8,3.4-13.3,5.9-2,.9-4.4,1.7-5.9,3.2-4,3.9-3.6,5.8-5.9,9.7-1.8,3.2-4.6,4.8-7.4,4.5,0,0-1.3,3.8-4.3,4.3a63.23,63.23,0,0,1-8,.5l-.7,2.4s-1.5,5-2.3,6a14.38,14.38,0,0,1-8.5,3.5,66.2,66.2,0,0,0-12.3.8c-4,.8-5.8,1.3-8.8-1.7s-6.5.7-7,3.7-3.8,7.5-3.8,7.5l1.1,5.3-.8.8c-1.2,1.2-2.6,1.9-3.9,3s-2.7,2.2-4.1,3.2a36.79,36.79,0,0,1-4.4,2.3,14.69,14.69,0,0,0-4.9-1.9l-4.1,1.5-.8,1.1a3.68,3.68,0,0,0-1.9,1.1c-3.7,3-8.9,7.2-11.5,11.1,0,1.5-.3,5.3-1.3,6.6-.8-.3-5,.6-6,.8l-1.2,1.3-2.3,2.6c-.2.2-4.2,1.8-4.9,2.1l-1,2,.1,2.3c.6,1.4,1.9,2.6,2.5,4l.2,1.6.1.8-2.6,2.4h-1.2a15.27,15.27,0,0,0-4.2-2.2l-2.1,1.7h-3.2l-1.6,1.3c-.1,1.7-.3,3.5-.4,5.2l.31-.18-4.91,6.78a29.48,29.48,0,0,0-1.7,4.1l1.4,3.2c-.1.2-1,2.2-1,2.2s-2.3,1.7-2.5,1.9h-6.4c-.3.6-.5,1.1-.8,1.6a10,10,0,0,1,1.2,1.9c.2.6,1.9,6.2,2.1,6.4a22.58,22.58,0,0,0,2.5,2.9l-.2,1.4-.6.3-3.2-.7-4.1,2.8a13.15,13.15,0,0,0-6.2,1.1c-3.7,4.3-7,10.8-10,15.9a39.07,39.07,0,0,1-3,4.1h-.8l-9.1,8.9-2,1.2a21.66,21.66,0,0,1-3.6.1,40.4,40.4,0,0,1-4.2,4.1c0,.1-3.1,1.1-3.4,1.2l-1.1,1.7c.8,2.9-.9,6.5-1.2,9.4a45.33,45.33,0,0,0,.3,5.2l-4.8,1.2-1.3,1.8v1.3l2.4,1.9.1,1.5a22.8,22.8,0,0,1-2,3.8,30.61,30.61,0,0,1-3.2,3l-3.1-.6a18.45,18.45,0,0,1-4.4-5.2l-2.3.6c-.2.5-1.8,3.5-1.8,3.5l-10.5,6.9c-1.3.9-5.4,6.3-5.6,8.1l-.6,5.3c0,.6-.8,1.6-1.1,2.2h-.7c-2.7-.1-1.8-.7-3.8-1.5,0,0-3.1-.2-3.3-.2a10.93,10.93,0,0,1-.8,1.5l1.2,5.1c-.4,1-1.1,2.2-1.4,3.2a21.87,21.87,0,0,0-.4,2.7c0,.1-.6,1.2-.7,1.4-2.3.3-4.6.9-6.9,1.4a35.75,35.75,0,0,1-2.8,4.8c-2,1.9-4.5,3.9-5.8,6.3a11.62,11.62,0,0,0-.6,4.9c.2.7.9,1.7,1.2,2.4.4.2,1,.3,1.3.5,3.9,2.7,7.8,5.6,11.7,8.5.3,1.1,5.6,7.9,6.4,9.4.5.9.8,2.1,1.2,3,.8,2,1.9,4.3,2.5,6.4l.7,3.6,1.3,6.3a2.92,2.92,0,0,1,.2.9l.9,9.9a31.25,31.25,0,0,1,.4,4.3c0,.1-.9,3.1-1,3.4-1.9,1.8-4.3,3.3-5.9,5.3s-1.1,4.3-1.6,6.7c-1.4,6.1-4,17.1-4,17.1l-5.7,10.2L8,828.9l-6.3,8.5V847l6.9,2.9,16,2.8h18.3l31.5,1.1h15.4l18.9,2.2,18.6,2.5,19.5,1.7,18.9-1.2-.49-.63.69-.17,25.4-3.4,5.1,1.2,8.5,5.1,7.9,4,4.5.6,8.5.6,4.5-.5,5.7-5.1,4-4.5,5.7-5.1Zm-81.52,6.31-.08-.11" transform="translate(-1.67 -1.9)"/></svg>