<?xml version="1.0" encoding="utf-8"?>
<!-- Generator: Adobe Illustrator 22.1.0, SVG Export Plug-In . SVG Version: 6.00 Build 0)  -->
<svg version="1.1" id="Layer_1" xmlns="http://www.w3.org/2000/svg" xmlns:xlink="http://www.w3.org/1999/xlink" x="0px" y="0px"
	 viewBox="0 0 876.7 991" style="enable-background:new 0 0 876.7 991;" xml:space="preserve">
<style type="text/css">
	.st0{fill:none;stroke:#9B3131;stroke-width:3.5;stroke-linejoin:round;}
	.st1{fill:none;stroke:#EAAC1F;stroke-width:3.5;stroke-linejoin:round;}
	.st2{fill:none;stroke:#4D4D4D;stroke-width:3.5;stroke-linejoin:round;}
	.st3{fill:none;stroke:#ED1C24;stroke-width:3.5;stroke-linejoin:round;}
	.st4{fill:none;stroke:#000000;stroke-width:3.5;stroke-linejoin:round;}
	.st5{fill:none;stroke:#00B1FF;stroke-width:3.5;stroke-linejoin:round;}
	.st6{fill:none;stroke:#00FF00;stroke-width:3.5;stroke-linejoin:round;}
	.st7{fill:none;stroke:#ED0606;stroke-width:3.5;stroke-linejoin:round;}
	.st8{fill:none;stroke:#BE07EA;stroke-width:3.5;stroke-linejoin:round;}
	.st9{fill:none;stroke:#FF7300;stroke-width:3.5;stroke-linejoin:round;}
	.st10{fill:none;stroke:#00B1FF;stroke-width:3.6;stroke-linejoin:round;}
	.st11{display:none;}
</style>
<g id="Punjab" inkscape:version="0.48.5 r10040" sodipodi:docname="India - Punjab - Gurdaspur.svg" xmlns:cc="http://creativecommons.org/ns#" xmlns:dc="http://purl.org/dc/elements/1.1/" xmlns:inkscape="http://www.inkscape.org/namespaces/inkscape" xmlns:ns="&#38;ns_sfw;" xmlns:rdf="http://www.w3.org/1999/02/22-rdf-syntax-ns#" xmlns:sodipodi="http://sodipodi.sourceforge.net/DTD/sodipodi-0.dtd" xmlns:svg="http://www.w3.org/2000/svg">
	<path id="path3939_3_" inkscape:connector-curvature="0" class="st0" d="M563.6,431.4c-0.4,0-0.7,0.1-1,0.1
		c-1.8,0.3-4.8,4.3-5.5,5.3s-2.5,4.3-2.5,7s0.3,6.9,0.3,6.9c-1.3,0.2-2.5,0.6-3.5,1.1c-1.5,0.8-2,1.3-3.5,0.5s-11,0-13,0
		s-4-0.5-5.8-2.5s-3.8-7-2.8-9s3.8-4,4-5.3s2.5-5.8,0.8-7.8s-1.8-3.3-2.8-0.8s-1.5,4.3-3.3,4.3s-3.8-2.3-3.8-4s-1.5-8-1.8-9.3
		s1.5-5.5,3.3-6s5.5-1.5,3.5-5s-1.8-7.5,2-6s4.3,0.3,4.8-1s-0.3-2.8-1.3-3.5s-3.3-3-1.5-4.5s2.3-2,4.5-0.3s6.8,5.3,8.3,3
		s2.5-4.3,4.8-5.3c1.5-0.6,3.4-2.4,4.9-3.9l-0.1-0.1l-0.5,0.5l0.1,0.1c0.8-0.8,1.4-1.5,1.6-1.8c0.8-1,5.8-7.5,5.8-9.3s0.5-8,0.3-10
		s-1.8-7.5-4-8.5s-9.5-5.5-11.3-8s-6-9.8-9-11.8s-8.8-7.5-8.8-7.5s0-6.5-1-8.3s-2.3-8.3-4.3-10.3s-6.5-6.8-6.5-6.8s-6.5,0.5-7.8,0.8
		s-4.5,0-4.5,0l-3.1-0.6l-2.1-0.8c1.6,1.8,2.9,3.4,3.4,4.1c1.8,2.5,1.3,5.5,0.5,6.8s-1.5,4-2,5.3s-1.5,3.3-4.3,4s-2,3-2.8,4.5
		s-2.8,3.5-5.8,4.5s-5.3,3-7.5,5.3s-2,9.8-2,14.5s-4.3,1-5.8-0.8s-5-6.3-5-6.3s-3-0.8-7.3-0.8s-4,5-4,5s3,7,4.5,9s-0.5,6.5-1.5,7.5
		s-5.8,5.5-7.3,7.3s-1.5,3-0.5,4.3s3.5,2.5,5.3,2.3s4.8-0.8,6-1.3s6,0.8,6.5,2.5s-3,2.5-5.3,2.8s-3.5,1.3-3.5,2.3s2,1.8,4.8,1.8
		s2.5,4,1.8,5.5s-7.8,9.5-12,12s-1.3,6.3,0.5,8s2.8,2.3,4.8,2.5s2,0.5,4.3,2.5s-1.5,6.8-3.8,8.8s-5,2.3-8.5,1.8s-3-1-6.8-1
		s-8.5,2.5-10.3,4.3s-4.3,3.8-8.3,1.3s-5.3,6.3-11.2,6.8c-6,0.5-6,4.8-6.5,8.8s-2.5,7.5-9,7.8s-5.8-3-5.8-6s-2.3-3.5-5.5-5
		s-3.5-0.3-4.8,1.3s-3,3.3-6.3,3.5s-7.8,0.8-11.3,1s-8,3.5-10.5,5.8s-10,3-12,1.5l2.3,1.3c0,0,0.8,4.3,0.8,5.8s1.8,3.5,4,3.3
		s6.3-2.5,6.8,1s2.1,6.6,4.6,6.9c1.9,0.8,5.4,0.4,6.3,0.5c16.8,0.9,8.3,14.2,17.2,17c2.6,0.8,5.6-0.9,8.1-1.3c3.6-0.6,4.5,3,7,4
		c2,2.5,5.3,2.3,8.2,2.4c8.4,0.3,8.7,11.8,22,13.2c2,1.8,7.7,2.9,10.1,3c0.6,0,1.3-0.1,1.9-0.1c2.4,0.1,4.7,0.7,7.1,0.7
		c5.8-0.1,11,3.7,17.8,2.8c4.9-0.7,5.5-1.7,9.7,1.1c5.5,3.6,14-3.2,19.5-4.1c6-1,7.2,2.7,14.1-0.3c3.8-1.6,10.5-3.2,14.5-2.4
		c10.2,2.3,9-5.8,16.7-5.8c2.2,0,6.1,4,9.4,4c2.6,0,6.4-1.3,8.6,0.5c2.3,1.8,7.6-1.7,9.7-3.1c1.6-1,3.4-1.7,5.2-2.1
		c0,0,8.8-6.2,14.5-6.2s8.8-1,11,1s3.3,3,6.3,3.3v-1.4c-0.1-1.8-0.3-4.7-1.5-6.6c-1.8-2.8-3.8-9.3-5-12c-1.1-2.4-2.7-5.7-2.7-7.5
		l-2.8-1c0,0-2.5-15.5-3.5-17.3s-3-5-3-5s-3-1.3-4.3-1.3s-7.3-2.3-7.3-3.8s0-4,0-4l-7.5-0.5c0,0-2.3-2.8-3.3-5.5
		c-0.5-1.5-1.2-3.5-1.6-5.1L563.6,431.4z"/>
	<path id="path83_2_" class="st1" d="M307.3,158.7c-2.2,1-8.7,7.6-10.9,9.6c-1.3,1.3-2.9,2.4-4.4,3.5c-1.6,1.2-4.7,3.3-5.4,5.1
		l-4.4,0.5c-0.6,1.3-1.3,2.7-1.9,4.1l-3.3,1.8c-1.4,3.8-2.1,8.4-5.6,10.3c-3.2,1.2-6.6,2.4-10,2.2l-2-0.1l-3.4-0.2l-1.5-0.9
		c-0.5-1-2-5.9-4.5-6c-7.8-0.2-4.8,5.4-6.5,11.9l-5,3.7c-5.8,4.4-10.2,9.9-15.5,14.7c-3.5,3.2-8.5,4-11.6,7.1l-0.8,0.8l-0.8,0.8
		c-1.4,1.4-2.5,4.2-2.7,6.2l-0.2,0.1c-2.4-0.3-4.2-0.6-5.7-0.5l-0.6,2.9c-0.6,0.8-0.5,2-0.5,3c0,2.1-0.3,4-0.6,6.1
		c-0.1,0.8-0.5,1.9-0.4,2.7c0,0.9,0.4,2,0.6,2.9c0.6,2.9,0.3,2.4,1.7,4.8l-0.1,1.8l-1.1,0.5c-1.3-0.2-1.8-0.2-2.3-0.4
		c-0.5-0.2-1-0.6-2.3-1.4c0,0-1.3-0.1-1.4-0.1l-1,0.5c0.4,3,0.3,6,0.2,9c0,0-0.2,3.4-0.1,3.5c0,0.2,0.1,0.4,0.2,0.6
		c0.5,1.1,0.9,2.2,1.5,3.3l2,4.3c1.4,2.8,3.1,5.6,4.7,8.4c3.1,5.4,6.2,10.9,9,16.4c0.9,1.8,1.5,3.8,2.2,5.6c0.6,1.5,1.3,3.1,1.8,4.7
		c0.8,2.6,1.8,5.4,2.4,8.1c0.7,3.2,0.9,6.6,1.4,9.8v0.2c0.1,1.5,0.1,3.1,0.2,4.6v-0.1c0,0,4.2,2.5-1.6,3s-5,7.3-2,7.8s5,2.8,5,2.8
		l8.2,8.3c0,0,2.6,11.3,2.1,13s-1.8,0.8-3.5,0.5s-4.3,0.5-5.8,1.3s-6.2,3.5-6,4.2c0.2,0.8-2.5,7.3-4.3,8.3s-9.7,9.1-9.7,9.1
		s0.4,8.7-1.6,10.7s-1.3,3.5-0.3,5s1.8,2-0.5,4.8s-3,6.3-3,8.8c0,2.5,1.2,23.7,1.2,23.7s-8.7,2.1-6.7,5.8s2.8,5.8,2,7.3
		s-1.5,6.5,2.8,8.5s8,3.5,8,3.5s0.5,3.8,0,5.3s2.8,7,5,5.3s5.5-2,8-2.8s2.8-2.8,2.8-5s-0.3-6.8,3.8-5.5s5.5,4.3,7,2.5
		s1.8-2.5,4.3-1.8s4.5,1.3,6.5,2.5s4.8,6.3,4.8,8.3s-1.5,6.3-1.5,6.3l0.5-1.5c0,0,5,0,8-0.5s4.3-4.3,4.3-4.3
		c2.9,0.3,5.6-1.3,7.4-4.5c2.3-4,1.9-5.8,5.9-9.7c1.6-1.5,4-2.3,5.9-3.2c5.3-2.5,6.7-7.5,13.3-5.9c3.7,0.9,4.4,1,8,0.1
		c4.4-1.1,3.4-0.1,7.4,0.6c3.9,0.7,9.1-2.2,12.3,0.1c0,0,0.7,0.2,0.7,0.3c2,0.1,3.3-0.5,4.6-1.2l-0.1,0.7l0.1-0.7
		c1.3-0.8,2.6-1.7,4.5-2.1c0.9-0.5,3.9-5.9,4.9-7.2c2.7-0.4,3.3-1.7,4.7-3.5c2-2.5,6.5-1.4,7.9-5.8c1.2-4,3.9-7.6,6.8-10.5
		c3-3,4.4-4,8-6.3c4.3-2.8,5.9-8,6.6-12.8c0.4-3.2,4.7-9.5,7.3-11.6c3.8-2.9,3-6.5,5.7-9.7c1.8-0.8,7.2-7,6.2-9.7
		c0.8-2.3,2.5-4.2,3.7-6.3c0.9-1.7,1.4-3.5,2.4-5.2c2.4-4.1,3.1-8.3,7.9-10.8c4.4-2.3,11.1-2.1,13.6-7.2l0.2-0.4
		c1.1-2,2.7-3.6,4.1-5.6h-0.9l0.8,0.7l0.1-0.7c0.5-0.7,0.9-1.4,1.2-2.2c1-2.3,2.6-3.1,3.6-5.1l0.2-0.4l0.1-0.3
		c1.4-2.8,11.5-12.4,14.5-15.2c2.6-2.3,4.8-5.3,6.7-8.4l-1.1-1.1l-7.6-9.4c0,0-2.5-3.3-3.7-4.9s-4.7-2-9.2-2.8s-3.9-8.4-3.9-8.4
		s-1.7-3.7-5.2-3.7s-2.4-1.6-2.4-4.3s-2.1-2-4.5-2s-4.9,1.2-7.2,3.9c-2.4,2.8-4.3,0-4.3,0s-0.4-3.5-2.5-3.5s-3.1-3.3-3.1-3.3v-6.8
		c0,0-2-1.2-3.7-3.1s-5.9-1.6-5.9-1.6s-14-2.1-16.8-2.5s-1.7-2.4-1.7-5.1c0-2.8-0.4-3.7-3.1-5.2s-10-5.6-11.9-5.6s-6-1.2-6-1.2
		s-4.5-2.8-6.4-3.5s-6.8-2.9-6.8-2.9s-1.6-1.2-4.3-4.3c-2.8-3.1-8-6.8-9.7-8s-5.1-5.2-5.9-7.2s-3.7-8-6-9.6
		c-2.4-1.6-1.6-4.1,0.4-4.9s3.5-2,6-3.5s3.5-1.6,5.5-2.1s4.1-0.8,6.4-1.2c2.4-0.4,4.1-2.8,2.9-5.5c-1.2-2.8-4.1-0.4-8.1,0
		c-4.1,0.4-3.1-4.9,1.3-8.4s0.8-6-3.7-8.9C305.7,166.6,307.3,158.6,307.3,158.7L307.3,158.7c1-0.5,2.2-0.9,3.2-1.3"/>
	<path id="path3939" inkscape:connector-curvature="0" class="st2" d="M436.1,102.9l5.5,3.3l6.6,1.6l5.5,5.5l6.9,2.4l1.6,3.2
		l2.9,0.8l1.8-2.6l4.7-2.1l3.7,2.6l9.8,3.4h4l3.4,2.4l5.5,0.5l3.4,1.8v3.2l2.9,8.4l3.7,3.2l4.2,5.8l-0.2-0.2c1.2-1,2.3-1.7,2.9-2.1
		c2.5-1.3,4.3-12.5,9-21.8s-1.8-5.5-4.8-5.3s-6.5,2.8-6.5,2.8s3.5-13.8,3.5-15s1.5-8.3,2.3-9.3s5-5.3,12-4.8s14.5-1,17.3-2.3
		s14.8-24,16.3-25.3s11.3-11.5,13.5-14s19-4.5,19-4.5l-9.8-20c0,0-15.4-15.1-15.4-21.7l-1.8-0.9c0,2.5-5.4,8.4-5.4,8.4l-14.2,8.1
		l-13.3,6.5c-0.3,0.1-1.1,1.1-1.1,1.5l-1.5,7.9l-7,7.5l-18.5,3.1L508,45l-13.7,5.8l-0.5,0.3l-7.1,5.8l-7.5,5.6l1.2,1.7l-0.4,0.3
		l0.4,1.4c0,0,0.3,7.8,1,10.5s1,9.5-4.3,9.8s-4.8-1.3-5-5s-3.8-6.8-6-8.5s-2-3.5-1-6.5s-1.8-3.3-3.3-1.8s-4,3-8.3,6.3
		s-5.8,2-8.5,0.8s-5.5-2.8-11.3-6s-10.9,1.4-10.9,1.4l0.4,0.4c0.7,0.8,1.3,2.1,1.8,3c-0.2,1.6-0.7,4.5-0.7,6c0,1.6,0.8,3.9,1.6,5.2
		l2.7,1.5l1.9,3.2c1.7,0.1,5.1-0.3,6,1.3c0.5,0.9,1.2,1.9,1.3,3l-1.8,2.8L436.1,102.9"/>
	<path id="path3939_1_" inkscape:connector-curvature="0" class="st3" d="M505,152.4c0,0,4-3.7,7.1-6.3l0.2,0.2l-4.2-5.8l-3.7-3.2
		l-2.9-8.4v-3.2l-3.4-1.8l-5.5-0.5l-3.4-2.4h-4l-9.8-3.4l-3.7-2.6l-4.7,2.1l-1.8,2.6l-2.9-0.8l-1.6-3.2l-6.9-2.4l-5.5-5.5l-6.6-1.6
		l-5.5-3.3c-3.3,2.9-4.2,3.6-8.7,5.3l-6,2.3l-1.6,2.8c0.1,2.4,0.3,5,0.2,7.3c0,0.2,0,0.4-0.1,0.6l-3.2,1.2l-0.2,0.7
		c-1.1,1.5-4.7,3-6.3,3.9l-0.7,0.4c-0.9,0.5-1.2,0.7-1.8,1.5l-0.6,0.8l-0.6,0.8c-0.5,0.7,0,1.2,0.6,1.5l-1.2-0.5
		c-0.7,1.8-0.3,3.7-0.7,5.6l-0.5,1.2l-7.2,6.7c-0.5,0.4-0.9,0.9-1.5,1.3v-0.4l-2.8,1.4c0.2-2.4,0.8-4.9-0.2-7.1l-3-2.2l-2,1.2
		l-0.3,1.1c-0.8,2.5-0.7,2.6-0.7,5.3c0,0.6,0.1,0.9,0,1.5c0,0-1.8,3.5-1.9,3.6c0,0-0.7,0.6-0.8,0.6l-5.6,4.3c-1.4-0.1-4.4,0-5.7-0.2
		c-1.5-0.3-5-1.7-6.9-2.4l-2-1.9c-1.1,0.7-2.4,1.9-4.1,3.8l-1,0.1l-1.4,0.1c-1,0.1-1.5,0.1-2.3,0.7l-0.8,0.5l-0.2,0.1
		c-3.6-3.6-5.5-2.4-7.8,0.4l-0.7,5.3l-1.5,1.7c0,0-1.3,0.6-1.4,0.7c-1.3-0.1-2.9-0.4-4.2-0.5c-0.1,0-1.7,0.4-1.8,0.4l-0.4,0.1
		c-3.3,2.7-3.1,3.4-7,3.4c-1.1-0.7-2.3-1.3-3.3-2.1l-5.9-5.2c-0.6-0.6-0.9-1-1.6-1.4c0,0-3.9-1.4-4-1.4c-1.2-0.3-2.7-0.2-3.9-0.3
		c0,0-0.2,0.1-0.3,0.1c-1.1,0.4-2.2,0.8-3.2,1.2l0,0c0,0-1.6,8,2.9,10.8c4.5,2.9,8.1,5.4,3.7,8.9s-5.4,8.8-1.3,8.4s6.9-2.8,8.1,0
		s-0.5,5.1-2.9,5.5s-4.5,0.7-6.4,1.2c-2,0.5-3,0.5-5.5,2.1s-4.1,2.8-6,3.5s-2.8,3.3-0.4,4.9s5.2,7.6,6,9.6s4.2,6,5.9,7.2
		c1.7,1.2,6.9,4.9,9.7,8c2.8,3.2,4.3,4.3,4.3,4.3s4.9,2.1,6.8,2.9s6.4,3.5,6.4,3.5s4.1,1.2,6,1.2s9.2,4.1,11.9,5.6s3.1,2.5,3.1,5.2
		c0,2.8-1.1,4.7,1.7,5.1c2.8,0.4,16.8,2.5,16.8,2.5s4.2-0.4,5.9,1.6s3.7,3.1,3.7,3.1v6.8c0,0,1.1,3.3,3.1,3.3s2.5,3.5,2.5,3.5
		s2,2.8,4.3,0c2.4-2.8,4.9-3.9,7.2-3.9c2.4,0,4.5-0.8,4.5,2s-1.2,4.3,2.4,4.3s5.2,3.7,5.2,3.7s-0.5,7.6,3.9,8.4s8,1.2,9.2,2.8
		c1.2,1.6,3.7,4.9,3.7,4.9l7.6,9.4c0,0,6.2,4.3,6.9-0.7s3.8-8.8,7.5-9s11-3,11.8-5.5s3.3-8.5,3.3-8.5l1.3-4.1c2.4-2.3,4-5.3,6.6-7.5
		c1.3-1.2,2.3-2.6,3.5-3.9c1.7-2,3.5-2.8,4.3-5.5c1.6-5.4,0.6-6.1-2.1-10.2c-1.2-1.9-1.3-8.7-1.2-10.9c0-1.2,0.3-2.3,0.3-3.5
		c0.1-2.5-0.1-4.6,0.2-7.2c0.5-4.2,1.3-6.3,1.2-10.7c-0.2-5,2.9-8.5,3-13.3c0.2-8.4-6.5-7.8-2.4-17.2c0.6-1.3,0.4-2.6,0.8-3.8
		l0.3-0.8c0.7-1.8,0.2-5.5-0.5-7.2c-0.8-2.4-2.8-3.8-4.1-5.9c0.1-4,4.2-5.7,3.7-12c-0.3-3.6,6.9-5.2,9.1-7.4c1.3-0.3,2.7-0.4,4-0.5
		c3.5-0.4,5.2-0.9,6.2-1.7"/>
	<path id="path3939_4_" inkscape:connector-curvature="0" class="st4" d="M467,294.3c0.8-2.5,3.3-8.5,3.3-8.5l1.3-4.1
		c2.4-2.3,4-5.3,6.6-7.5c1.3-1.2,2.3-2.6,3.5-3.9c1.7-2,3.5-2.8,4.3-5.5c1.6-5.4,0.6-6.1-2.1-10.2c-1.2-1.9-1.3-8.7-1.2-10.9
		c0-1.2,0.3-2.3,0.3-3.5c0.1-2.5-0.1-4.6,0.2-7.2c0.5-4.2,1.3-6.3,1.2-10.7c-0.2-5,2.9-8.5,3-13.3c0.2-8.4-6.5-7.8-2.4-17.2
		c0.6-1.3,0.4-2.6,0.8-3.8l0.3-0.8c0.7-1.8,0.2-5.5-0.5-7.2c-0.8-2.4-2.8-3.8-4.1-5.9c0.1-4,4.2-5.7,3.7-12
		c-0.3-3.6,6.9-5.2,9.1-7.4c1.3-0.3,2.7-0.4,4-0.5c3.5-0.4,5.2-0.9,6.2-1.7l-0.2,0.5l6.1,1.8l7.9-0.7l7.9,0.5l6.1,3l8,7.2l1.8,2.4
		l6.1-0.6l4.3,1.2l5.6,7.8l4.3,4.2l9.2,3.5l9.8,5.3l6.8,6l7.4,7.8l6.2,10.8l2.5,8.4l8,11.4v4.8H608l-5.5-0.6l-3,4.2l1.9,6l3.7,9
		l3.1,7.2l3.1,9.6l3.7,7.8l5.6,8.4l4.3,7.8l4.3,6.6l3.1,9l5.6,8.4l6.8,12.6l3.7,9.6l5,9l5,11.4l3.1,3.6v6l0.1,7.2l-2.4,6l6.2,7.8
		l3.2,13.8l6.1,1.8l7.3-1.9l5.5,0.6l7.6-0.9l0.1,0.6l8.3,7c0,0,3,4,5.5,5.5s4.5,7.5,4.5,9.3v0.3l-1,9.5l-12,1.8l-3.8-8.8h-5.8
		c0,0-2.8-2-4.5,0.5s-2,6-2,6l-2,5.8l-7.8,3.1c-0.3,2.6-1.9,6.4-1.9,8.4c0,2.3-0.5,2.8-3.8,5s-6.3-1-6.8-2.3s-1.8-3-4.8-3.3
		s-5.8-1-5.8-2.5s-1.5-3.3-2.8-4s-3.3-1.8-5-3.3s-4.5-7.8-4.5-9s-1.8-3.8-3.5-5.3s-3.3-0.5-6,1.5s-2.5-2.5-2.5-4.3s0-2.5-0.8-3.8
		s-5.5-1.3-7.8-1.5s-12.3-0.8-13.8-0.8s-3.8-0.5-5-2s-5.3-3.8-5.3-3.8s-4-3.5-5.8-3.5h-5.3h0.1c-0.3-1.2-1.1-2.5-2.3-2.5
		c-1.8,0-5.3,1-6.3-0.8s-2.5-7,0-9.3s6.3-3.5,6.3-3.5s2-5,1.3-6s-1-2.3-3.5-2.3s-6,0-7.3-1s-4-2.5-6.8-1s-3.3,1.5-5,0.3
		s-4-1.3-4-1.3l-4.8-0.5l0.1,0.1c0.8-0.8,1.4-1.5,1.6-1.8c0.8-1,5.8-7.5,5.8-9.3s0.5-8,0.3-10s-1.8-7.5-4-8.5s-9.5-5.5-11.3-8
		s-6-9.8-9-11.8s-8.8-7.5-8.8-7.5s0-6.5-1-8.3s-2.3-8.3-4.3-10.3s-6.5-6.8-6.5-6.8s-6.5,0.5-7.8,0.8s-4.5,0-4.5,0l-5.5-1l-0.2,0.2
		c-4.1-4.6-10.2-11.1-11.1-11.7c-1.3-0.8-3-1-4,0.3s-3,3.8-3,3.8h-5.8l-7.3-1"/>
	<path id="path3939_6_" inkscape:connector-curvature="0" class="st5" d="M563.6,431.4c-0.4,0-0.7,0.1-1,0.1
		c-1.8,0.3-4.8,4.3-5.5,5.3s-2.5,4.3-2.5,7s0.3,6.9,0.3,6.9c-1.3,0.2-2.5,0.6-3.5,1.1c-1.5,0.8-2,1.3-3.5,0.5s-11,0-13,0
		s-4-0.5-5.8-2.5s-3.8-7-2.8-9s3.8-4,4-5.3s2.5-5.8,0.8-7.8s-1.8-3.3-2.8-0.8s-1.5,4.3-3.3,4.3s-3.8-2.3-3.8-4s-1.5-8-1.8-9.3
		s1.5-5.5,3.3-6s5.5-1.5,3.5-5s-1.8-7.5,2-6s4.3,0.3,4.8-1s-0.3-2.8-1.3-3.5s-3.3-3-1.5-4.5s2.3-2,4.5-0.3s6.8,5.3,8.3,3
		s2.5-4.3,4.8-5.3c1.5-0.6,3.4-2.4,4.9-3.9l-0.1-0.1l4.8,0.5c0,0,2.3,0,4,1.3s2.3,1.3,5-0.3s5.5,0,6.8,1s4.8,1,7.3,1
		s2.8,1.3,3.5,2.3s-1.3,6-1.3,6s-3.8,1.3-6.3,3.5s-1,7.5,0,9.3s4.5,0.8,6.3,0.8c1.3,0,2,1.3,2.3,2.5c0.1,0.5,0.2,0.9,0.2,1.3
		c0,1.3,0.3,5.5,0,6.5s-2,4.3-5.3,4.8s-1.8-3.8-1.3-6.8s-3-5.3-6-5s-2.8,4.5-1.8,5.8s2,5,2.3,6.3s-1.5,4.8-4,5
		C567,431.2,565.2,431.3,563.6,431.4"/>
	<path id="path3939_5_" inkscape:connector-curvature="0" class="st6" d="M563.9,431.5c1.6-0.1,3.2-0.2,5.2-0.4c2.5-0.3,4.3-3.8,4-5
		s-1.3-5-2.3-6.3s-1.3-5.5,1.8-5.8s6.5,2,6,5s-2,7.3,1.3,6.8s5-3.8,5.3-4.8s0-5.3,0-6.5c0-0.4-0.1-0.8-0.2-1.3h-0.1h5.3
		c1.8,0,5.8,3.5,5.8,3.5s4,2.3,5.3,3.8s3.5,2,5,2s11.5,0.5,13.8,0.8s7,0.3,7.8,1.5c0.8,1.3,0.8,2,0.8,3.8s-0.3,6.3,2.5,4.3
		s4.3-3,6-1.5s3.5,4,3.5,5.3s2.8,7.5,4.5,9s3.8,2.5,5,3.3s2.8,2.5,2.8,4s2.8,2.3,5.8,2.5s4.3,2,4.8,3.3s3.5,4.5,6.8,2.3
		s3.8-2.8,3.8-5c0-2,1.6-5.8,1.9-8.4l7.8-3.1l2-5.8c0,0,0.3-3.5,2-6s4.5-0.5,4.5-0.5h5.8l3.8,8.8l12-1.8c0,0,1,1,3,2.3s4,4.5,4,6.8
		s1,4.8,2,6s6,7.8,8.3,10s5.8,4.8,7.8,6.3s0.5,4.5-1.3,6.8s0.3,5,1,6s2.3,2.3,4,3.8s6.3,6.8,7.5,9.8s10.3,11.3,10.3,11.3
		s-2,2.8-3.8,3.5s-24.5,5.3-27.3,5.5s-11.3,0-14.5-1.3s-11-6.9-11-6.9c-4.7,0.4-11.3,1-15.6,1.2l-0.4-0.9c0,0-4.3-2.8-10.3-5.8
		s-11.3,0.3-15.3,3s-10.3,1.3-13.5-0.5s-7.3,1-9,1s-5.3,1-11,1.5s-8.5-0.3-11.8-0.8s-7-2.5-10-2.7c0,0,0.3-5.3-1.5-8s-3.8-9.3-5-12
		c-1.1-2.4-2.7-5.7-2.7-7.5l-2.8-1c0,0-2.5-15.5-3.5-17.3s-3-5-3-5s-3-1.3-4.3-1.3s-7.3-2.3-7.3-3.8s0-4,0-4l-7.5-0.5
		c0,0-2.3-2.8-3.3-5.5s-2.3-7.3-2.3-7.3L563.9,431.5z"/>
	<path id="path3939_7_" inkscape:connector-curvature="0" class="st5" d="M467.6,293.8c-0.8,2.5-8,5.3-11.8,5.5s-6.8,4-7.5,9
		c-0.6,3.8-4.2,2.3-6,1.3l0.1,0.5c-2,3.1-4.2,6.1-6.7,8.4c-3.1,2.8-13.1,12.4-14.5,15.2l-0.1,0.3l-0.2,0.4c-1,2-2.6,2.8-3.6,5.1
		c-0.4,0.8-0.8,1.5-1.2,2.2l-0.1,0.7l-0.8-0.7h0.9c-1.4,2-3,3.6-4.1,5.6l-0.2,0.4c-2.5,5.1-9.2,4.8-13.6,7.2
		c-4.7,2.5-5.4,6.7-7.9,10.8c-1,1.7-1.4,3.5-2.4,5.2c-1.2,2.1-2.8,4-3.7,6.3c0.9,2.7-4.4,8.9-6.2,9.7c-2.6,3.2-1.9,6.7-5.7,9.7
		c-2.6,2-6.9,8.4-7.3,11.6c-0.7,4.8-2.3,10.1-6.6,12.8c-3.5,2.3-5,3.3-8,6.3c-2.9,2.9-5.6,6.5-6.8,10.5c-1.3,4.4-5.9,3.3-7.9,5.8
		c-1.4,1.8-2,3.2-4.7,3.5c-1,1.3-4,6.7-4.9,7.2c-1.9,0.5-3.2,1.4-4.5,2.1l-0.1,0.7c0,0,4,6,5.8,8.5s7.5,5.3,6.8,1.5s-3-8,1.3-8.8
		s6-1.3,8,0.3s9.5,0.8,12-1.5s7-5.5,10.5-5.8s8-0.8,11.3-1s5-2,6.3-3.5s1.5-2.8,4.8-1.3s5.5,2,5.5,5s-0.8,6.3,5.8,6s8.5-3.8,9-7.8
		s0.5-8.3,6.5-8.8s7.2-9.3,11.2-6.8s6.5,0.5,8.3-1.3s6.5-4.3,10.3-4.3s3.3,0.5,6.8,1s6.3,0.3,8.5-1.8s6-6.8,3.8-8.8
		s-2.3-2.3-4.3-2.5s-3-0.8-4.8-2.5s-4.8-5.5-0.5-8s11.3-10.5,12-12s1-5.5-1.8-5.5s-4.8-0.8-4.8-1.8s1.3-2,3.5-2.3s5.8-1,5.3-2.8
		s-5.3-3-6.5-2.5s-4.3,1-6,1.3s-4.3-1-5.3-2.3s-1-2.5,0.5-4.3s6.3-6.3,7.3-7.3s3-5.5,1.5-7.5s-4.5-9-4.5-9s-0.3-5,4-5
		s7.3,0.8,7.3,0.8s3.5,4.5,5,6.3s5.8,5.5,5.8,0.8s-0.3-12.3,2-14.5s4.5-4.3,7.5-5.3s5-3,5.8-4.5s0-3.8,2.8-4.5s3.8-2.8,4.3-4
		s1.3-4,2-5.3s1.3-4.3-0.5-6.8c-0.5-0.7-1.8-2.2-3.4-4.1c-4.1-4.6-10.2-11.1-11.1-11.7c-1.3-0.8-3-1-4,0.3s-3,3.8-3,3.8h-5.8l-7.3-1
		"/>
	<path id="path3939_2_" inkscape:connector-curvature="0" class="st5" d="M467.6,293.8c-0.8,2.5-8,5.3-11.8,5.5s-6.8,4-7.5,9
		c-0.6,3.8-4.2,2.3-6,1.3l0.1,0.5"/>
	<path id="path3939_8_" inkscape:connector-curvature="0" class="st1" d="M697.5,408.8l6.8,5.8c0,0,3,4,5.5,5.5s4.5,7.5,4.5,9.3v0.3
		l-1,9.5c0,0,1,1,3,2.3s4,4.5,4,6.8s1,4.8,2,6s6,7.8,8.3,10s5.8,4.8,7.8,6.3s0.5,4.5-1.3,6.8s0.3,5,1,6s2.3,2.3,4,3.8
		s6.3,6.8,7.5,9.8s10.3,11.3,10.3,11.3s-2,2.8-3.8,3.5s-24.5,5.3-27.3,5.5s-11.3,0-14.5-1.3s-11-6.9-11-6.9c-0.4,0-0.8,0.1-1.3,0.1
		v0.2v16.3l-1.3,17.5c0,0,2.3,4,3.5,5.8s3-1.3,3.5-2.5s1.5-7,1.5-8.5s1-4,3.8-4.5s3-0.3,4.5,3.3s1.5,6.8,1.5,9s-3.3,5-6.3,6.5
		s-1.8,5.5-1.5,7.3s0.8,3.5,3.3,4s4.8-1,7.5-2.8c0.9-0.5,1.6-1.3,2.1-2.1c0,0,2.1,1.1,3.1,2.9s-1.3,4-2.3,5.3s0,4.5,1.3,4.8
		s3.5,1.5,5.8,2.5c2.1,0.9,0.7,6.8,0.1,9.5c-0.3,1,2.9,5.7,2.9,5.7l3.8,0.5l8.3,4.5l5,0.8l2,4.3l13-13c0,0,1.5-6,4.8-8.8
		s5-5.5,5.3-8.3s1.3-4.8,1.3-4.8l7.5-11c0,0-1.3-4,1-5.5s7.3-2.5,8.5-3.5s5.3-4.3,8.3-4.5s9.3-1.8,10.3-4s5.3-3.8,6.8-5s4-2.8,4-2.8
		l0,0l-5.8-6.1l-9.2-4.1l-8.6-2.9l-8.6-7.2l-3.7-10.2l0.6-7.2l3-9l2.4-7.8l-4.3-5.4l-2.5-9.6l0.6-6l7.3-4.9l4.8-7.9l-3.7-2.4
		l-6.1-0.6l-7.3,0.1l3.6-7.2l-1.9-8.4l-6.1-3.6l-1.8,4.8l-4.9,1.2l1.2-4.2l-0.6-4.8l-3,3.6l-2.4,0.6l-3.7-4.2l-2.4,3.6l-4.9-1.8
		l-0.7-7.2l-6.7,2.5l-6.7,1.9l0.6-2.4l1.8-4.2l-3.7-6l-3.7-6.6l-2.5-8.4l-0.7-6.6l-0.6-3.6l-4.3-3l-4.3-4.2h-4.9l-4.2,4.8l-4.9,1.8
		l-1.2,6.6l2.5,4.8l-5.5,5.5l-3.6,4.8l1.3,4.2l-4.2,5.4l-3.9,0.4L697.5,408.8z"/>
	<path id="path3939_10_" inkscape:connector-curvature="0" class="st7" d="M436.8,515c0,0,0.5,7.8,0,10.5s2.5,8,3.3,10s7,12,7,12
		s-3,6.8-5.8,10.3s-2.2,13.7-2.2,13.7s0.8,9.7,0.8,13.9s-2.5,6.3-2.5,6.3s-0.8,4.7-1.6,9.2s0.3,6-2.2,7.7s-1.3,3-1.3,5.1
		s3.4,7.6,3.4,7.6l0.4,8c0,0,1.7,4.2,4.2,7.6s2.1,5.5,0.9,8c-0.7,1.3,0.4,3.4,1.9,5.6l0.2-0.2c0,0,2.5-3.4,4.2-4.2s8.5-1.6,10.1-4.2
		c1.7-2.6,9.9-1.2,9.9-1.2l1.5,8l9-1.3c0,0,3-2.5,3.8-3.5s3.5-2,4.8-0.3s2.3,2.8,2.3,2.8l5.8-0.5c0,0,0-2,0-3.3s0.3-4,2-2.3
		s4.3,3.3,4.3,3.3l6.3,0.8l7.5-1.8l6.3-5.5l10.3-4.3l5.5,1.5l10.3,2.3l5-1.8c0,0,0.3-5.8,1.5-5.8s3.5,0,3.5,0l2-3.8l-3.3-5.5l1.3-4
		l6.5,3.5l7.3-3.8l7.5,2l11.3,6l-3.5,4c0,0-2.5,2.5-0.5,4s2.8,3,2.8,4s0.3,4.3,0.3,4.3s7.3,0.5,7.5,2.8s1.5,8,1.5,8l6.3-0.5
		c0,0-0.8-3.3,1.3-4s5.5-3,8.5-1.8s3.8,1,5.5,0.3s9.7-6.5,9.7-6.5l2.8,5.7l6.3,8.8c0,0,0.2-1.5,3.5-1.5s6.5-2,7.5-4.5s3-9,3-9
		s2.3-5,2-6.3s-0.3-1.5,1.3-3.5s6.8-5.8,9.5-6.5s7.5-3.3,9.3-4.8c1.1-0.9,2.5-3.3,4-4.4c0,0,4-2.1,6.7-2.1s11-1,11.5-2.8s1-2-1-4.5
		s-3.3-5-2-7.3s1.5-6.5-1.5-8.8s-7.5-1.3-4-8s4.8-13.8,4.5-16s-1-5,0.5-6.8s2.3-3.5,5.3-3s7.5,1,7.5,1l6.3,3.5l-0.3-0.2
		c-0.3-1.9-0.5-4.5,1.8-5.6c3-1.5,6.3-4.3,6.3-6.5s0-5.5-1.5-9s-1.8-3.8-4.5-3.3s-3.8,3-3.8,4.5s-1,7.3-1.5,8.5s-2.3,4.3-3.5,2.5
		s-3.5-5.8-3.5-5.8l1.3-17.5V509v-0.2c0.4,0-10,0.9-14.3,1.1l-0.4-0.9c0,0-4.3-2.8-10.3-5.8s-11.3,0.3-15.3,3s-10.3,1.3-13.5-0.5
		s-7.3,1-9,1s-5.3,1-11,1.5s-8.5-0.3-11.8-0.8s-7-2.5-10-2.8s-4-1.3-6.3-3.3s-5.3-1-11-1s-14.5,6.2-14.5,6.2c-1.8,0.4-3.6,1-5.2,2.1
		c-2.1,1.4-7.4,4.9-9.7,3.1c-2.2-1.8-6.1-0.5-8.6-0.5c-3.3,0-7.2-4-9.4-4c-7.7,0-6.5,8.1-16.7,5.8c-4-0.9-10.7,0.7-14.5,2.4
		c-6.9,3-8.1-0.7-14.1,0.3c-5.5,0.9-14,7.7-19.5,4.1c-4.2-2.8-4.7-1.8-9.7-1.1c-6.8,1-12-2.8-17.8-2.8c-2.4,0-4.7-0.6-7.1-0.7
		c-0.6,0-1.3,0.1-1.9,0.1c-0.9,0-2.1-0.2-3.5-0.4L436.8,515z"/>
	<path id="path109_1_" class="st5" d="M777.9,619.3l5.7-0.2c0,0,6.3,1.8,6.5,4.3s0,10.8,0,12.5s1.8,4,2.8,2s1.3-3,1.3-3l3.5,0.8
		c0,0-0.8,3,0,4.3s1,4,1,5.8s-0.5,3.8,1,3.8s3.3-0.5,4.3,1.3s2,3.5,3.8,1.8s2-3,3.3-3.3s2-0.8,2-0.8s0,3.3,0,4.5s0.3,4,1.8,2.5
		s4.8-2.5,5.3-4.3s1-3.5,2-4.5s1.8-2.5,3.3-4s5-7.3,5-7.3s6.3,6.8,7.5,7.8s0.5,4,0.3,6s0.5,6.8,0.5,6.8h5.3c0,0,1.5,0.8,2,2
		s1.3,3.5-0.5,5.8s-5.3,2-4.8,5.3s2.3,6.8-1,9.5s-4.8,4.5-5.5,5.5s-1,0.8-1,2.8s-0.5,4.8-2.3,2.5s-2.5-1.3-2.5,0.5s0.8,4,1.3,5
		s0.8,6,0.8,6l0.9-0.4l2.8-1.1l2.3,2.8l6.2,3.4l4.5-2.8l4.5-1.7l4.5,2.3l2.8,5.1l0.6,6.2l-0.6,7.3l1.1,4.5l5.1,1.7l5.1-3.9l2.8-9
		l-2.8-7.4l-2.8-9.6l1.7-9.6v-5.1l4.5-5.6l0.6-5.1l-3.4-2.8l-5.7-2.9l-1.1-2.8l3.4-1.1l4-2.8l1.1-7.3l2.3-4.5l-1.7-4l-1.7-5.1
		l-10.8-6.3V630v-4.5l-2.3-3.4l-4,0.5l-4.5-2.3l-2.3-5.1l-2.8,3.4l-2.3,2.8l-5.7,0.5l-5.7-2.9l-5.1-3.4l-5.1-2.3l-4.5-2.8l-2.8-5.1
		l-4.5-5.1l-1.1-4l2.8-3.9l4-3.9l3.4-2.2l5.1-2.8l2.8-2.2l4-1.7l5.7,3.4l6.2,2.3l4.5,0.6l5.7-2.8l1.1-3.4l-1.1-6.8l-4-3.4l-7.4-1.7
		l-1.7-8.5l-2.3-5.7l-4-6.8l2.8-2.8l2.3-2.8l-5.7-5.3l-5.5-5.4l-2.2-2.3l0,0c0,0-2.5,1.5-4,2.8s-5.8,2.8-6.8,5s-7.3,3.8-10.3,4
		s-7,3.5-8.3,4.5s-6.3,2-8.5,3.5s-1,5.5-1,5.5l-7.5,11c0,0-1,2-1.3,4.8s-2,5.5-5.3,8.3s-4.8,8.8-4.8,8.8l-13,13l-0.8-1.3l8,9.3
		l11,12.5l4.3-0.3L777.9,619.3z"/>
	<path id="path3939_11_" inkscape:connector-curvature="0" class="st7" d="M243.3,486.3c0,0-1.5,5-2.3,6s-5,3.5-8.5,3.5
		s-8.3,0-12.3,0.8s-5.8,1.3-8.8-1.7s-6.5,0.7-7,3.7s-3.8,7.5-3.8,7.5l1.1,5.3l-0.8,0.8c-1.2,1.2-2.6,1.9-3.9,3s-2.7,2.2-4.1,3.2
		c-1.3,0.9-3,1.6-4.4,2.3c-2.1-1.1-2.6-1.4-4.9-1.9l-4.1,1.5l-0.8,1.1c-0.8,0.1-1.3,0.6-1.9,1.1c-3.7,3-8.9,7.2-11.5,11.1
		c0,1.5-0.3,5.3-1.3,6.6c-0.8-0.3-5,0.6-6,0.8l-1.2,1.3l-2.3,2.6c-0.2,0.2-4.2,1.8-4.9,2.1c-0.1,0.2-1,2-1,2l0.1,2.3
		c0.6,1.4,1.9,2.6,2.5,4l0.2,1.6l0.1,0.8l-2.6,2.4h-1.2c-1.2-0.9-2.7-1.7-4.2-2.2l-2.1,1.7h-3.2l-1.6,1.3c-0.1,1.7-0.3,3.5-0.4,5.2
		l0.7-0.4l4.4,1.8l20,0.3l2.1,2.4l2.1,0.3l6.5-2.9l2.7,0.3l0.6,3.2l6.2,5.9l5.3,2.1l3.2,5.9l0.3,0.5c5.7-3,14-8.2,15.7-9.8
		c2.5-2.3,9.8-7,11.3-8.3s4.3-4,6.5-1s6,3,7.8,1.8s5.8-2.3,7.3-2.3s5,1.3,8,1.3s8,0.3,8.5,1.3s4.5,2,5.5,3s5.8,2.5,6.3,6.5
		s2.5,4.3,6.5,4.8s7,1.3,8.3,1.5s2.8,2.5,2.8,2.5s5.3,4.5,7.8,5.8s6.8,2.5,8.5,3c0.7,0.2,7.5,0.4,8.3,0c0,0-0.3-4,1.8-5.8
		s5-8.8,5.3-10s1.5-2.3,2.8-4.5s2.3-5,2-7s-0.3-9.5-0.3-9.5V548c0,0,9-3.5,10-5.8s4.5-7.3,8.8-9s9.3-3.5,10.8-6.3s2-4.8,2-6.8
		s0.8-8.3,0.5-9.8s-1.5-4.3-3.5-4.3s-6.3,0-6.3-3.3s1.5-7.8,4.5-5.3s6.8,5.5,7,0.3s1.3-7.5,2.3-4.3s3.8,4.5,3.8,3s-1.5-3.3,1.3-4.5
		s4.8-5,5.8-6.5s0.4-8.7,0.4-8.7l0,0c-0.9,0-4.4,0.3-6.3-0.5c-2.5-0.3-4.1-3.4-4.6-6.9s-4.5-1.3-6.8-1s-4-1.8-4-3.3
		s-0.8-5.8-0.8-5.8l-2.3-1.3c-2-1.5-3.8-1-8-0.3s-2,5-1.3,8.8s-5,1-6.8-1.5s-5.8-8.5-5.8-8.5l0.1-0.7c-1.3,0.8-2.6,1.3-4.6,1.2
		c-0.1,0-0.7-0.2-0.7-0.3c-3.2-2.2-8.4,0.6-12.3-0.1c-3.9-0.7-3-1.7-7.4-0.6c-3.6,0.9-4.3,0.8-8-0.1c-6.6-1.5-8,3.4-13.3,5.9
		c-2,0.9-4.4,1.7-5.9,3.2c-4,3.9-3.6,5.8-5.9,9.7c-1.8,3.2-4.6,4.8-7.4,4.5c0,0-1.3,3.8-4.3,4.3s-8,0.5-8,0.5L243.3,486.3z"/>
	<path id="path3939_12_" inkscape:connector-curvature="0" class="st6" d="M368,477.1c16.8,0.9,8.3,14.2,17.2,17
		c2.6,0.8,5.6-0.9,8.1-1.3c3.6-0.6,4.5,3,7,4c2,2.5,5.3,2.3,8.2,2.4c8.4,0.3,8.7,11.8,22,13.2c1.3,1.2,3.8,1.9,6.4,2.4v0.1
		c0,0,0.5,7.8,0,10.5s2.5,8,3.3,10s7,12,7,12s-3,6.8-5.8,10.3s-2.2,13.7-2.2,13.7s0.8,9.7,0.8,13.9s-2.5,6.3-2.5,6.3
		s-0.8,4.7-1.6,9.2s0.3,6-2.2,7.7s-1.3,3-1.3,5.1s3.4,7.6,3.4,7.6l0.4,8c0,0,1.7,4.2,4.2,7.6s2.1,5.5,0.9,8
		c-0.7,1.3,0.4,3.4,1.9,5.6c1.3,2,3,4.1,4,5.7c2.1,3.3,0,6.3-0.4,7.6s-5.9,4.7-5.9,4.7s-5.5,1.3-8,1.3s-3.8,1.3-6.7-1.7
		c-2.9-2.9-7.6-3.4-9.7-1.7c-2.1,1.7-6.8,5.6-6.8,5.6s-2.3-1.8-4.5-2.8s-2.8-0.8-6.3,0.5s-13.8,1-16,0s-1.8-5.8-1.5-7.3
		s-0.3-4.3-2-6.5s-1-4-1-6.3s-1.3-3.3-7-3.3s-5.5,3-7,5s-0.3,10,0.3,12.3s-1.3,5.3-8.3,3s-8,2-9.5,3.3s-3.8,3-7.5,3.3
		s-1.5,4.8-1.5,4.8s-2,3.3-3.5,2.3s-2.5-4-1.8-5.3s0.8-9,0.8-12s-5.3-4.3-5.3-4.3s-1.5-1.8-2-3.8s-2.5-4-3.5-4s-4,1.5-5.5,2.5
		s-5.5,5.8-5.5,5.8s-1.8-0.3-4.5-4.5s5-9.3,7.3-10s5.8-0.3,5.8-0.3l2.5-22l0.5-4l-3.5-4c0,0-5.8-2-7.5-2.8s-3.5-6.3-3.5-7.8
		s0.8-8.5,0.8-8.5s-0.3-4,1.8-5.8s5-8.8,5.3-10s1.5-2.3,2.8-4.5s2.3-5,2-7s-0.3-9.5-0.3-9.5V548c0,0,9-3.5,10-5.8s4.5-7.3,8.8-9
		s9.3-3.5,10.8-6.3s2-4.8,2-6.8s0.8-8.3,0.5-9.8s-1.5-4.3-3.5-4.3s-6.3,0-6.3-3.3s1.5-7.8,4.5-5.3s6.8,5.5,7,0.3s1.3-7.5,2.3-4.3
		s3.8,4.5,3.8,3s-1.5-3.3,1.3-4.5s4.8-5,5.8-6.5S368,477.1,368,477.1L368,477.1z"/>
	<path id="path3939_9_" inkscape:connector-curvature="0" class="st8" d="M711,557.4l0.3,0.2l-6.3-3.5c0,0-4.5-0.5-7.5-1
		s-3.8,1.3-5.3,3s-0.8,4.5-0.5,6.8s-1,9.3-4.5,16s1,5.8,4,8s2.8,6.5,1.5,8.8s0,4.8,2,7.3s1.5,2.8,1,4.5s-8.8,2.8-11.5,2.8
		s-6.7,2.1-6.7,2.1c-1.6,1.1-2.9,3.5-4,4.4c-1.8,1.5-6.5,4-9.3,4.8s-8,4.5-9.5,6.5s-1.5,2.3-1.3,3.5s-2,6.3-2,6.3s-2,6.5-3,9
		s-4.3,4.5-7.5,4.5s-3.5,1.5-3.5,1.5l-2.5,8.5c0,0-0.8,5.5-1,8c-0.1,0.9-0.2,2-0.3,3.2l0.6,0.1c0,0,3-2.8,6.8-3.8s9.5-3,12.3-3
		s4.8-1,4.8-1s4.8-4.3,8.3-4.3s7.5-0.8,7.5-0.8s6.3-3.5,9.5-3.5s10.3-1.3,10.3-1.3s3-2.3,5.3-0.5s4.5,3.5,4.5,3.5l3.5,7
		c0,0-0.5,5.8-0.5,7.8s-0.3,8.5-0.3,8.5l-0.3,8.3l-2.3,6.3c0,0,9-0.5,10-1.5s2.5,0.3,4,1s5.3,3.3,5.3,3.3v3.5l7-3l-1-6
		c0,0,7.5-1,10.3-0.8s3.5,1.3,5.8,1.8s4.8,0.5,4.8,0.5s4-9.3,4.5-11.5s0.5-5.3-0.5-6.8s-3.6-6.1-0.5-8.8c1.8-1.5,0-6.8,0-6.8
		S752,659,753,655s0-6.8,2.3-7.3s3-0.5,3-0.5s3.5,2,5,0.5s3-2,3.3-3.3s4.3-7,6-8.3s5.3-2.5,5.3-2.5l1-3.3l-1.3-9l-0.8-2.3l-4.3,0.3
		l-11-12.5l-8-9.3l0.8,1.3l-2-4.3l-5-0.8l-8.3-4.5l-3.8-0.5c0,0-3.2-4.7-2.9-5.7c0.6-2.8,2-8.6-0.1-9.5c-2.3-1-4.5-2.3-5.8-2.5
		s-2.3-3.5-1.3-4.8s3.3-3.5,2.3-5.3s-3.1-2.9-3.1-2.9c-0.6,0.8-1.3,1.6-2.1,2.1c-2.8,1.8-5,3.3-7.5,2.8s-3-2.3-3.3-4
		c-0.1-0.9-0.5-2.3-0.5-3.7"/>
	<path id="path3939_14_" inkscape:connector-curvature="0" class="st7" d="M831,700.2l-10.8,4.5l-2.8,6.8l1.1,7.4l-0.6,5.7l3.4-1.7
		l7.4-1.7l0.6,4.5l-5.7,2.8l-5.1,3.9l-9.1,5l-8.5,5.6l-9.7,7.9l-8.5,2.2l-5.7,2.2l-5.1,3.9l-3.4,7.9l3.4,0.6l3.4-1.7l3.4-3.4
		l2.3-1.7l6.2-0.5l2.8,4.5l1.7,6.2l6.8,2.9l1.1,4.5l-2.8,5.1l-2.8,5.6l-1.7,4.5l-6.2,4.5l-6.2,5.6l-4,3.9l-4.5,3.9l-5.1,3.4
		l-6.8-0.6l-5.1-4.5l-5.1-1.7l-4-6.2l-4-6.2l-1.7-6.2l2.3-6.2l-3.4-4.5h-5.1l-6.2,2.8v5.1l2.3,5.1l-2.3,6.2l-2.8,5.1l-4-0.6
		l-2.3-5.1l-1.7-3.4l-2.8-0.6l-3.4,3.4l1.7,4l0.6,4.5l-2.3,2.2l-3.4-0.6l-3.4-1.7l-13.6-6.9l-7.4-7.4l-2.8-0.6l-0.6,2.3v2.8
		l-1.1,1.7l-1.7,1.1l2.3,5.7l5.1,2.3l6.2,1.2l0.6,2.8l-4.5,2.2l-4,1.7l-0.6,2.8l1.1,5.7v2.8l-2.8,3.4l-2.3,6.8l-0.4,4.9l-0.2,1.9
		l-4.5,5.6l-1.1,1.1l-2.3,3.4l-0.6,3.4l-0.6,2.3l1.1,6.8l2.3,4.5l0.6,7.9l2.8,0.6l7.9,0.6l2.8,4.5l-2.8,5.1l-2.8,1.7l-4.5,1.7
		l-5.1,1.7l-1.7,3.4l-4.5,5.1l-5.7,0.5l-7.9,0.5l0,0l-1.7-4.3c0,0,1-3.8,2.3-5.5s2-4.5-0.5-7.3s-5.5,1.5-6.8,5s-8.3,0.3-8.3,0.3
		s-2.5-2.5-3.3-5.3s-1.8-5.8-8.8-4.5s-5-1.8-7.8-6s-7.8-1.3-8.8,0.3s-5,3-7.8,0.8s-3.5-6.5-1.5-8.3s3-3,4.5-3.5s5.8-2,6,0.5
		s1,3.5,1,3.5s3.5,0.8,3.8-2s2.3-6,2.5-7s1-1.8,2.5-2.3s6.3-3.3,6.3-3.3s2.3-1.8,0.3-2.8s-2.8-2-0.8-3s3-2.5,2-3.8s-2.8-7-0.3-8.8
		s3.8-5.5,3.8-5.5s0.3-1.3,0.5-3.5s2-4.3,4.8-5s7.5-3.3,8-4.5s3.5-5.8,3.5-5.8s-0.8-4.5-0.8-5.5s0-3.8-3.3-4s-6.5-0.5-5.8-4.3
		s2-6.8,0.5-9.3s-5-8.8-6-9.8s-4.3-4.8-4.3-4.8s-2-4.5-0.8-6.8s1.3-2.5,3.8-2.3s4.8,0.8,7,0.8s13.3-1.3,15-3.8s3-6,7.5-5.3
		s7,0.3,7.8-1s7-5.8,8-6.5s0.8-5.3,0.8-5.3s0.5-4,1.8-5.3s-2.5-3.8-3.8-2.5s-3.3,2.5-5.3,2.5s-7-0.5-5.3-3s0.5-4.5-1.3-4
		s-6,1.3-6,1.3s-10,0-12.5,1.3s-6.8,1.8-7.8,0.8s-8.5-7.3-11-6.5s-9,0.8-9,0.8s-4.3-1-5-4s-0.8-6.8,2.8-7s7.5-0.3,8.8-3.3
		s2-9.5,5.5-11.5s7.8-7.5,7.8-10.5s-1.5-5.3-1.5-5.3s-1.5-7.8-0.5-10c0.6-1.4,1-3.6,1.2-5.6l0.6,0.1c0,0,3-2.8,6.8-3.8s9.5-3,12.3-3
		s4.8-1,4.8-1s4.8-4.3,8.3-4.3s7.5-0.8,7.5-0.8s6.3-3.5,9.5-3.5s10.3-1.3,10.3-1.3s3-2.3,5.3-0.5s4.5,3.5,4.5,3.5l3.5,7
		c0,0-0.5,5.8-0.5,7.8s-0.3,8.5-0.3,8.5l-0.3,8.3l-2.3,6.3c0,0,9-0.5,10-1.5s2.5,0.3,4,1s5.3,3.3,5.3,3.3v3.5l7-3l-1-6
		c0,0,7.5-1,10.3-0.8s3.5,1.3,5.8,1.8s4.8,0.5,4.8,0.5s4-9.3,4.5-11.5s0.5-5.3-0.5-6.8s-3.6-6.1-0.5-8.8c1.8-1.5,0-6.8,0-6.8
		s-1.3-1.8-0.3-5.8s0-6.8,2.3-7.3s3-0.5,3-0.5s3.5,2,5,0.5s3-2,3.3-3.3s4.3-7,6-8.3s5.3-2.5,5.3-2.5l1-3.3l-1.3-9L777,618l1.3,0.2
		l5.7-0.2c0,0,6.3,1.8,6.5,4.3s0,10.8,0,12.5s1.8,4,2.8,2s1.3-3,1.3-3l3.5,0.8c0,0-0.8,3,0,4.3s1,4,1,5.8s-0.5,3.8,1,3.8
		s3.3-0.5,4.3,1.3s2,3.5,3.8,1.8s2-3,3.3-3.3s2-0.8,2-0.8s0,3.3,0,4.5s0.3,4,1.8,2.5s4.8-2.5,5.3-4.3s1-3.5,2-4.5s1.8-2.5,3.3-4
		s5-7.3,5-7.3s6.3,6.8,7.5,7.8s0.5,4,0.3,6s0.5,6.8,0.5,6.8h5.3c0,0,1.5,0.8,2,2s1.3,3.5-0.5,5.8s-5.3,2-4.8,5.3s2.3,6.8-1,9.5
		s-4.8,4.5-5.5,5.5s-1,0.8-1,2.8s-0.5,4.8-2.3,2.5s-2.5-1.3-2.5,0.5s0.8,4,1.3,5s0.8,6,0.8,6"/>
	<path id="path3939_15_" inkscape:connector-curvature="0" class="st6" d="M536.6,634.3l10.3,2.3l5-1.8c0,0,0.3-5.8,1.5-5.8
		s3.5,0,3.5,0l2-3.8l-3.3-5.5l1.3-4l6.5,3.5l7.3-3.8l7.5,2l11.3,6l-3.5,4c0,0-2.5,2.5-0.5,4s2.8,3,2.8,4s0.3,4.3,0.3,4.3
		s7.3,0.5,7.5,2.8s1.5,8,1.5,8l6.3-0.5c0,0-0.8-3.3,1.3-4s5.5-3,8.5-1.8s3.8,1,5.5,0.3s9.7-6.5,9.7-6.5l2.8,5.7l6.3,8.8l-2.5,8.5
		c0,0-0.8,5.5-1,8c-0.1,0.9-0.2,2-0.3,3.2c-0.2,2-0.6,4.1-1.2,5.6c-1,2.3,0.5,10,0.5,10s1.5,2.3,1.5,5.3s-4.3,8.5-7.8,10.5
		s-4.3,8.5-5.5,11.5s-5.3,3-8.8,3.3s-3.5,4-2.8,7s5,4,5,4s6.5,0,9-0.8s10,5.5,11,6.5s5.3,0.5,7.8-0.8s12.5-1.3,12.5-1.3
		s4.3-0.8,6-1.3s3,1.5,1.3,4s3.3,3,5.3,3s4-1.3,5.3-2.5s5,1.3,3.8,2.5s-1.8,5.3-1.8,5.3s0.3,4.5-0.8,5.3s-7.3,5.3-8,6.5
		s-3.3,1.8-7.8,1s-5.8,2.8-7.5,5.3s-12.8,3.8-15,3.8s-4.5-0.5-7-0.8s-2.5,0-3.8,2.3s0.8,6.8,0.8,6.8s3.3,3.8,4.3,4.8s4.5,7.3,6,9.8
		s0.3,5.5-0.5,9.3s2.5,4,5.8,4.3s3.3,3,3.3,4s0.8,5.5,0.8,5.5s-3,4.5-3.5,5.8s-5.3,3.8-8,4.5s-4.5,2.8-4.8,5s-0.5,3.5-0.5,3.5
		s-1.3,3.8-3.8,5.5s-0.8,7.5,0.3,8.8s0,2.8-2,3.8s-1.3,2,0.8,3s-0.3,2.8-0.3,2.8s-4.8,2.8-6.3,3.3s-2.3,1.3-2.5,2.3s-2.3,4.3-2.5,7
		s-3.8,2-3.8,2s-0.8-1-1-3.5s-4.5-1-6-0.5s-2.5,1.8-4.5,3.5s-1.3,6,1.5,8.3s6.8,0.8,7.8-0.8s6-4.5,8.8-0.3s0.8,7.3,7.8,6
		s8,1.8,8.8,4.5s3.3,5.3,3.3,5.3s7,3.3,8.3-0.3s4.3-7.8,6.8-5s1.8,5.5,0.5,7.3s-2.3,5.5-2.3,5.5l1.7,4.3l0,0l-8.5,5l-7.4,10.7
		l-4.5,6.8h-4l-4.5-2.3l-2.8,1.7l-2.8,3.4l-5.1,1.1l-4,0.5l-4,0.5l-4.5-2.9l-3.4-1.7l-7.9-1.2l-5.1-1.7l-2.8-5.7l-1.1-5.1l-4.5-5.1
		l-2.3-4.5l-5.7,0.5l-4.5-2.3l-4.5-1.7l-5.7,2.8l-4,1.7l-5.6-0.9l0,0c0,0,0.5-5.3,1.5-6.5s3-3.5,5.5-4.5s2.8-2,2.8-4.8
		s-1.3-2-5.8-3.8s-0.3-5,0.8-5.5s3.3-1.5,6-2.3s1-4.3,0.8-5.3s-1.8-4.3-3-6.8s-6-3-7.3-2s-3,0-5-1.3s-2.3-2-4-2s-2.3,3.3-2.8,5.8
		s-5.8,4-9,4s-5-5-5-6.3s-0.5-2.8-2.5-5s0-10.3,0.3-12.3s5.3-7.3,5.3-7.3s1-1.5,2-1.8s2-4,2-4s-1.3-3.3-3-6s-4.3-2-5,1.8
		s-5.5,0.5-5.8-1s0.3-18,0.3-18s2.3-4,4.3-6s1.8-5.3-2-5.5c-2.3-0.2-6.5-2.7-9.4-4.6l-0.1,0.1c0,0,0.5-2,0.5-6.5s-3-10.5-0.5-12.5
		s4-5,4-5l1-5l7.5,1.5c0,0,6.5-1.5,8.5-2.5s3-2,6-1s9,0.5,11.5-2.5s2-5.5,2-8s0-7.5,0-7.5l-5-4l-9.5-3c0,0-5-5-5-7s-2-8.5,2.5-8.5
		s5-0.5,5-0.5s1.5-3-0.5-6s-4-5.5-4-5.5l-1-14.5l-4,0.5c0,0,0-4.5,2.5-6s3.5-3.5,3.5-3.5v-5.5l-2.5-3l7.5-9l-7.5-8.5l3.5-7v-4
		l7.5-14L536.6,634.3z"/>
	<path id="path3939_17_" inkscape:connector-curvature="0" class="st5" d="M535.6,634l-7.5,14v4l-3.5,7l7.5,8.5l-7.5,9l2.5,3v5.5
		c0,0-1,2-3.5,3.5s-2.5,6-2.5,6l4-0.5l1,14.5c0,0,2,2.5,4,5.5s0.5,6,0.5,6s-0.5,0.5-5,0.5s-2.5,6.5-2.5,8.5s5,7,5,7l9.5,3l5,4
		c0,0,0,5,0,7.5s0.5,5-2,8s-8.5,3.5-11.5,2.5s-4,0-6,1s-8.5,2.5-8.5,2.5l-7.5-1.5l-1,5c0,0-1.5,3-4,5s0.5,8,0.5,12.5
		s-0.5,6.5-0.5,6.5l0.1-0.1c-1.8-1.2-3.1-2.1-3.1-2.1s-3.8-2.5-6.8-2.5s-11.5,1.8-14.8,1.8s-8.5-2.8-11-5s-5.8-6.8-6.5-8.5
		s-1.5-3-2.8-2.3s-3,2-4.8-0.3s-3.3-1.3-5.3-0.3s-4.8-0.8-7-3c-1-1-1.8-1.4-2.5-1.5c0,0-2.2-8.3-2.2-10.3s0-10.5,0-10.5l-6-6l-6-4.5
		l0.5-7.5l3-4.5l-3-10.5l-4.5-0.5l-3-15c0,0-5-4.5-8-7.5s-2.1-9.8-2.1-9.8c2-2.7,3.1-9.9,3.1-9.9s4.6-3.9,6.8-5.6
		c2.1-1.7,6.8-1.3,9.7,1.7c2.9,2.9,4.2,1.7,6.7,1.7s8-1.3,8-1.3s5.4-3.4,5.9-4.7c0.4-1.3,2.5-4.2,0.4-7.6c-1-1.6-2.7-3.7-4-5.7
		l0.2-0.2c0,0,2.5-3.4,4.2-4.2s8.5-1.6,10.1-4.2c1.7-2.6,9.9-1.2,9.9-1.2l1.5,8l9-1.3c0,0,3-2.5,3.8-3.5s3.5-2,4.8-0.3
		s2.3,2.8,2.3,2.8l5.8-0.5c0,0,0-2,0-3.3s0.3-4,2-2.3s4.3,3.3,4.3,3.3l6.3,0.8l7.5-1.8l6.3-5.5l10.3-4.3l4,1.1L535.6,634z"/>
	<path id="path3939_16_" inkscape:connector-curvature="0" class="st9" d="M437.8,768.3c0.7,0.1,1.5,0.5,2.5,1.5c2.3,2.3,5,4,7,3
		s3.5-2,5.3,0.3s3.5,1,4.8,0.3s2,0.5,2.8,2.3s4,6.3,6.5,8.5s7.8,5,11,5s11.8-1.8,14.8-1.8s6.8,2.5,6.8,2.5s1.3,1,3.1,2.1l-0.1,0.1
		l0.1-0.1c2.9,1.9,7.1,4.5,9.4,4.6c3.8,0.3,4,3.5,2,5.5c-2,2-4.3,6-4.3,6s-0.5,16.5-0.3,18s5,4.8,5.8,1s3.3-4.5,5-1.8s3,6,3,6
		s-1,3.8-2,4s-2,1.8-2,1.8s-5,5.3-5.3,7.3s-2.3,10-0.3,12.3c2,2.3,2.5,3.8,2.5,5s1.8,6.3,5,6.3s8.5-1.5,9-4s1-5.8,2.8-5.8s2,0.8,4,2
		s3.8,2.3,5,1.3s6-0.5,7.3,2s2.8,5.8,3,6.8s2,4.5-0.8,5.3s-5,1.8-6,2.3s-5.3,3.8-0.8,5.5s5.8,1,5.8,3.8s-0.3,3.8-2.8,4.8
		s-4.5,3.3-5.5,4.5s-1.5,6.5-1.5,6.5l0,0l-1.8-0.3l-5.1,5.1l-1.7,7.9l-3.4,3.4l-3.4-1.7l-6.2-2.3h-5.1l-5.1,5.6l-5.1,2.8l-7.4,1.1
		l-4-2.3l-4.5-6.2l-4-1.2l-5.7,0.5l-5.1-2.3l-11.3-8.5l-3.4,0.5l-1.1,2.8l-2.3,3.9l-3.4,2.2l-4.5,5.1L444,923l-2.3,4.5l-1.7,7.3
		l-2.3,3.4l-3.4,1.7l-3.4,3.4v4l-1.1,4.5l-3.4-1.2l-4-1.7l-1.1,4l-1.7,3.4l-4.5,6.8l-2.3,5.6l1.1,4l3.4,3.4l1.1,3.4l-2.8,5.6
		l-7.4,1.1l-4,1.1l-5.1,1.1l-2.3,0.6l-2.3-5.7l-2.8-4.5v-3.4l0.6-6.2l-5.1-5.1l-6.8-4v-2.8l-1.7-2.8L377,950l2.3-2.3l4-2.8l1.7-5.1
		l-1.1-7.9l6.2-3.4l4.5-2.8l1.7-6.2l-3.4-7.4l-3.4-5.7l-2.8-7.9l-1.1-4.5l0,0c0,0,1-4.8,3.5-6.3s5.8-4,4.5-8c0,0-0.8-0.8-3.8-3.8
		s-7.5-4-7.5-4l-2.5-8.5l3-14.5c0,0,1.5-4.5,4.5-3s11,4,11,4s3-3,5-3.5s2.5-1.5,5-4s6-9,6-9l-11.5-1l1-8l4-2.5c0,0-3-5-3-8.5
		s2-11,6-12s8-0.5,10.5-1s8.5-6.5,8.5-6.5s2-6,2-8s1-7.5,1-7.5l5-9.5L437.8,768.3z"/>
	<path id="path3939_18_" inkscape:connector-curvature="0" class="st8" d="M385.3,893.6l-5.1,1.7l-4.5,3.9l-2.8,5.6v7.9l-3.4-1.1
		l-1.7-2.8l-1.1-5.7h-3.4l-4,1.1l-2.8-1.1l1.1-4.5l2.3-3.9l-1.1-3.4l-2.3-3.4l0.6-4l4-4.5l0.6-4l-3.4-5.7l-4.5-4.5l-2.3,4.5
		l-1.7,5.6l-4,5.1l-5.1-0.6l-4,1.7l-5.1,1.7l-1.5-1l-1.9-1.3l-5.7-4.6l-3.4-4l-5.7-4l-4-4l-1.7-6.2l-3.4-2.8l-4.5,1.1l-3.4-2.3
		l-2.8-1.7l-7.4-1.2l-4.5-4.5l-3.4-5.1l-5.7,0.5l-8.5,3.9l-10.8,3.9l-7.4,1.1l0,0c0,0-0.2-2.8-1.7-4s-2-5.3,0.8-7.5s3-5.3,3-5.3
		l-0.8-4.8l-4.5-6.3c0,0-1.5-3.5-0.5-5.3s1.3-4.3-1.3-6s-5.3-2.8-2.3-5.5s2.5-5.5,0.8-5.3s-5.3,1.5-7.5,1s-5.3-2.5-6-4
		s0-7.5,1.5-9.8s3-4.3,6.3-4.3s14-0.8,17.3-2.3s6.3-3.3,5.3-5.3c-1-2-3-2.5-5.3-2.3s-5.8-1.5-3.3-5s2.3-6.8,2.3-8.5s0.8-8.3,0.8-9.3
		s-0.3-4.8,3.8-5.3c4.1-0.5,6-2.5,4.3-4.3s-8-7.8-0.8-7.5c7.2,0.3,7.3-3.5,7.3-3.5s-2.3-3.3-4-3.5s-7-1.8-11-2s-5.5-3-4.8-4.8
		s4.3-4.5,7-2.8s8,3.3,10.8,4.8s8.3,3,10-1s3-8.5,4.8-9.5s9.5-3.3,12.5-2.3s16.3,2.8,18.3,2.5s9.3-3.5,10.5-4.5s8.8-4.3,13.5-1.3
		s7.5,4.3,9.5,1.8s1-7-1.3-9.3s-5.5-5.3-4.5-8s1.3-3.5,4-3.3s7.3-3.3,4-5.8s-6.5-4.8-6.5-4.8s-2.3-4.5,1.5-4.8s6-2,7.5-3.3
		s2.5-5.5,9.5-3.3s8.8-0.8,8.3-3s-1.8-10.3-0.3-12.3s1.3-5,7-5s7,1,7,3.3s-0.8,4,1,6.3s2.3,5,2,6.5s-0.8,6.3,1.5,7.3s12.5,1.3,16,0
		s4-1.5,6.3-0.5s4.5,2.8,4.5,2.8s-1.1,7.3-3.1,9.9c0,0-0.9,6.8,2.1,9.8s8,7.5,8,7.5l3,15l4.5,0.5l3,10.5l-3,4.5L424,736l6,4.5l6,6
		c0,0,0,8.5,0,10.5s2.2,10.3,2.2,10.3l-0.2,0.3l-5,9.5c0,0-1,5.5-1,7.5s-2,8-2,8s-6,6-8.5,6.5s-6.5,0-10.5,1s-6,8.5-6,12
		s3,8.5,3,8.5l-4,2.5l-1,8l11.5,1c0,0-3.5,6.5-6,9s-3,3.5-5,4s-5,3.5-5,3.5s-8-2.5-11-4s-4.5,3-4.5,3l-3,14.5l2.5,8.5
		c0,0,4.5,1,7.5,4s3.8,3.8,3.8,3.8c1.3,4-2,6.5-4.5,8s-3.4,6-3.4,6L385.3,893.6z"/>
	<path id="path3939_13_" inkscape:connector-curvature="0" class="st1" d="M309.3,595.3c0,0-0.8,7-0.8,8.5s1.8,7,3.5,7.8
		s7.5,2.8,7.5,2.8l3.5,4l-0.5,4l-2.5,22c0,0-3.5-0.5-5.8,0.3s-10,5.8-7.3,10s4.5,4.5,4.5,4.5s4-4.8,5.5-5.8s4.5-2.5,5.5-2.5
		s3,2,3.5,4s2,3.8,2,3.8s5.3,1.3,5.3,4.3s0,10.8-0.8,12s0.3,4.3,1.8,5.3s3.5-2.3,3.5-2.3s3.3,2.3,6.5,4.8s-1.3,6-4,5.8s-3,0.5-4,3.3
		s2.3,5.8,4.5,8s3.3,6.8,1.3,9.3s-4.8,1.3-9.5-1.8s-12.3,0.3-13.5,1.3s-8.5,4.3-10.5,4.5s-15.3-1.5-18.3-2.5
		c-1.6-0.5-4.6-0.1-7.3,0.5h-1.7c0,0-1.3-5-4.3-4.5s-8.5,2-10,2.3s-4,1-4.5-1.8s0.5-5.8-1.3-6.5s-2.3-3-1.3-5s1.8-5.3,1.8-6.3
		c0-0.7-1.4-3-3-3.7c0,0-3-2.3-1.8-3.5c1.2-1.2,5.3-2.8,5.3-2.8l3.8-5.5h-7.3l-7.3-6.5l-5-1c0,0-3.3-3-0.3-6.5s3.5-7,2.3-9
		s-8.8-9-10.3-10s-3.8-1.5-5-3.5s-3.5-7-3.5-7l0.3-5.8c0,0-4.8-1-5.8-1.8s-3.8-3-3.8-3s-2.5-1.5-3.8-1.8s-10.5-2.3-10.5-2.3
		l-0.8,0.3l-12.7-1.3l-4-0.8l-5.8,0.8l-0.3,0.2c-1.3-1.5-2.5-3.2-3.2-4.5c-1.3-2.3-2.8-9.3-0.5-14.3s3.5-8,6.5-8.5
		c0.9-0.1,2.7-1,5-2.2c5.7-3,14-8.2,15.7-9.8c2.5-2.3,9.8-7,11.3-8.3s4.3-4,6.5-1s6,3,7.8,1.8s5.8-2.3,7.3-2.3s5,1.3,8,1.3
		s8,0.3,8.5,1.3s4.5,2,5.5,3s5.8,2.5,6.3,6.5s2.5,4.3,6.5,4.8s7,1.3,8.3,1.5s2.8,2.5,2.8,2.5s5.3,4.5,7.8,5.8s6.8,2.5,8.5,3
		C301.8,595.5,308.5,595.6,309.3,595.3z"/>
	<path id="path83_1_" class="st7" d="M165.9,858.2l25.4-3.4l5.1,1.2l8.5,5.1l7.9,4l4.5,0.6l8.5,0.6l4.5-0.5l5.7-5.1l4-4.5l5.7-5.1
		l0,0c0,0-0.2-2.8-1.7-4s-2-5.3,0.8-7.5s3-5.3,3-5.3l-0.8-4.8l-4.5-6.3c0,0-1.5-3.5-0.5-5.3s1.3-4.3-1.3-6s-5.3-2.8-2.3-5.5
		s2.5-5.5,0.8-5.3s-5.3,1.5-7.5,1s-5.3-2.5-6-4s0-7.5,1.5-9.8s3-4.3,6.3-4.3s14-0.8,17.3-2.3s6.3-3.3,5.3-5.3c-1-2-3-2.5-5.3-2.3
		s-5.8-1.5-3.3-5s2.3-6.8,2.3-8.5s0.8-8.3,0.8-9.3s-0.3-4.8,3.8-5.3c4.1-0.5,6-2.5,4.3-4.3s-8-7.8-0.8-7.5c7.2,0.3,7.3-3.5,7.3-3.5
		s-2.3-3.3-4-3.5s-7-1.8-11-2s-5.5-3-4.8-4.8s4.3-4.5,7-2.8s8,3.3,10.8,4.8s8.3,3,10-1s3-8.5,4.8-9.5c0.8-0.4,1.5-0.8,3.7-1.3
		l-0.2-0.4c0,0-1.3-5-4.3-4.5s-8.5,2-10,2.3s-4,1-4.5-1.8s0.5-5.8-1.3-6.5s-2.3-3-1.3-5s1.8-5.3,1.8-6.3c0-0.7-1.4-3-3-3.7
		c0,0-3-2.3-1.8-3.5c1.2-1.2,5.3-2.8,5.3-2.8l3.8-5.5h-7.3l-7.3-6.5l-5-1c0,0-3.3-3-0.3-6.5s3.5-7,2.3-9s-8.8-9-10.3-10
		s-3.8-1.5-5-3.5s-3.5-7-3.5-7l0.3-5.8c0,0-4.8-1-5.8-1.8s-3.8-3-3.8-3s-2.5-1.5-3.8-1.8s-10.5-2.3-10.5-2.3l-0.8,0.3l-12.7-1.3
		l-4-0.8l-5.8,0.8l-0.3,0.2c0.9,1.1,2,2,3,2.8c2.5,1.8,1.8,4.5-0.8,5.5s-1.5,3-1.5,4.5s-0.5,2.5-3.6,3.8c0,0-0.1,1.7-3.4,1.7
		s-8.3-0.5-8.3-0.5l-9.8,3.3c0,0-0.3,9.3-0.3,10.5s0.5,5.3,0.5,5.3l3,2.5l2.5,8.3l-7.3,7.5c-0.5,0.7-7.6,9.1-11,12
		c-3.5,3-15.8,9.8-22,11.5c-6.2,1.7-2.3,5.5-0.8,5.3s10.8,0,14.5,0.3s5.3,2.3,5.3,4.3s-2,3.8-5.3,3.8s-3.5,2.3-3.5,2.3
		s1.3,12.8,1.3,14.5s0,3-0.3,4s-9.5,19.5-10.5,21.3s-3.5,2.8-7.5,2s-2.5,2.5-0.3,4.5s5.8,1.8,8,1.5s8-0.3,11.3-1.8s3.8,1.3,3.3,2.8
		s-3.8,21-4.3,24.3s0,3.8,2.3,3.5s6,0,7.8,0s5.3,1.3,6.3,2.3s6.8,8.3,9.3,10.5s1.8,3.5,0.5,4.5s-3.8,1-7.3-2s-4.3,1.8-5.3,4.3
		s2.3,7.3,4.8,8.8s2,1.8,2,6.3s2,3.5,3.3,3.5s1.3,0.3,5.8-0.8c4.5-1.1,3.5,4.5,3.5,6.8s-0.5,3-2.8,5.8s-3.3,8.5-3.3,10.3s3,13,3,13"
		/>
	<path id="path83_5_" class="st5" d="M164.5,856.4c0.3,1.3,0.6,2.2,0.6,2.2"/>
	<path id="path83_6_" class="st10" d="M190.6,585.3c-2.3,1.2-4.2,2.1-5,2.2c-3,0.5-4.3,3.5-6.5,8.5s-0.8,12,0.5,14.3
		c0.7,1.3,1.9,3,3.2,4.5c0.9,1.1,2,2,3,2.8c2.5,1.8,1.8,4.5-0.8,5.5s-1.5,3-1.5,4.5s-0.5,2.5-3.6,3.8c0,0-0.1,1.7-3.4,1.7
		s-8.3-0.5-8.3-0.5l-9.8,3.3c0,0-0.3,9.3-0.3,10.5s0.5,5.3,0.5,5.3l3,2.5l2.5,8.3l-7.3,7.5c-0.5,0.7-7.6,9.1-11,12
		c-3.5,3-15.8,9.8-22,11.5c-6.2,1.7-2.3,5.5-0.8,5.3s10.8,0,14.5,0.3s5.3,2.3,5.3,4.3s-2,3.8-5.3,3.8s-3.5,2.3-3.5,2.3
		s1.3,12.8,1.3,14.5s0,3-0.3,4s-9.5,19.5-10.5,21.3s-3.5,2.8-7.5,2s-2.5,2.5-0.3,4.5s5.8,1.8,8,1.5s8-0.3,11.3-1.8s3.8,1.3,3.3,2.8
		s-3.8,21-4.3,24.3s0,3.8,2.3,3.5s6,0,7.8,0s5.3,1.3,6.3,2.3s6.8,8.3,9.3,10.5s1.8,3.5,0.5,4.5s-3.8,1-7.3-2s-4.3,1.8-5.3,4.3
		s2.3,7.3,4.8,8.8s2,1.8,2,6.3s2,3.5,3.3,3.5s1.3,0.3,5.8-0.8c4.5-1.1,3.5,4.5,3.5,6.8s-0.5,3-2.8,5.8s-3.3,8.5-3.3,10.3
		c0,1.3,1.6,7.5,2.4,10.8l1.4,1.8l-18.9,1.2l-19.5-1.7l-18.6-2.5l-18.9-2.2H74.4l-31.5-1.1H24.6l-16-2.8L1.7,847v-6.4v-3.2l6.3-8.5
		l11.4-12.5l5.7-10.2c0,0,2.6-11,4-17.1c0.5-2.4,0-4.8,1.6-6.7c1.6-2,4-3.5,5.9-5.3c0.1-0.3,1-3.3,1-3.4c0.1-1.2-0.3-3.1-0.4-4.3
		l-0.9-9.9c0-0.3-0.1-0.6-0.2-0.9l-1.3-6.3l-0.7-3.6c-0.6-2.1-1.7-4.4-2.5-6.4c-0.4-0.9-0.7-2.1-1.2-3c-0.8-1.5-6.1-8.3-6.4-9.4
		c-3.9-2.9-7.8-5.8-11.7-8.5c-0.3-0.2-0.9-0.3-1.3-0.5c-0.3-0.7-1-1.7-1.2-2.4c-0.2-1,0.1-4,0.6-4.9c1.3-2.4,3.8-4.4,5.8-6.3
		c0.6-0.6,2.3-3.8,2.8-4.8c2.3-0.5,4.6-1.1,6.9-1.4c0.1-0.2,0.7-1.3,0.7-1.4c0.2-0.9,0.1-1.9,0.4-2.7c0.3-1,1-2.2,1.4-3.2l-1.2-5.1
		c0.3-0.5,0.6-1,0.8-1.5c0.2,0,3.3,0.2,3.3,0.2c2,0.8,1.1,1.4,3.8,1.5h0.7c0.3-0.6,1.1-1.6,1.1-2.2l0.6-5.3c0.2-1.8,4.3-7.2,5.6-8.1
		l10.5-6.9c0,0,1.6-3,1.8-3.5l2.3-0.6c1.1,1.9,2.7,3.9,4.4,5.2l3.1,0.6c1-0.9,2.4-2,3.2-3s1.4-2.6,2-3.8l-0.1-1.5l-2.4-1.9v-1.3
		l1.3-1.8l4.8-1.2c-0.1-1.4-0.4-3.8-0.3-5.2c0.3-2.9,2-6.5,1.2-9.4l1.1-1.7c0.3-0.1,3.4-1.1,3.4-1.2c1-0.7,3.3-3.1,4.2-4.1
		c1,0,2.6,0.1,3.6-0.1l2-1.2l9.1-8.9h0.8c1-1.3,2.2-2.7,3-4.1c3-5.1,6.3-11.6,10-15.9c1.7-0.9,4.3-1.2,6.2-1.1l4.1-2.8l3.2,0.7
		l0.6-0.3l0.2-1.4c-0.8-0.9-1.9-1.9-2.5-2.9c-0.2-0.2-1.9-5.8-2.1-6.4c-0.2-0.6-0.8-1.3-1.2-1.9c0.3-0.5,0.5-1,0.8-1.6h6.4
		c0.2-0.2,2.4-1.9,2.5-1.9c0,0,0.9-2,1-2.2l-1.4-3.2c0.4-0.9,1.1-3.3,1.7-4.1l5-6.9l0.7-0.4l4.4,1.8l20,0.3l2.1,2.4l2.1,0.3l6.5-2.9
		l2.7,0.3l0.6,3.2l6.2,5.9l5.3,2.1l3.2,5.9L190.6,585.3z"/>
</g>
<g id="Layer_2_1_" class="st11">
</g>
</svg>
